<svg width="99" height="65" viewBox="0 0 99 65" fill="none" xmlns="http://www.w3.org/2000/svg">
<path d="M11.7507 22.8811C7.87468 22.7628 5.56261 26.643 3.94374 29.7328C1.39919 34.5894 -0.64237 40.545 3.00961 45.4312C5.4189 48.6605 10.3432 49.489 14.1388 49.8905C14.8912 49.9709 17.5161 50.4612 17.9683 49.582C17.9768 51.5052 17.2371 53.3523 17.4146 55.2882C17.7655 59.1473 21.0666 61.2142 24.6298 61.7721C28.4466 62.3681 32.2973 60.9395 35.907 59.9039C37.006 59.5869 38.591 59.2699 39.1659 58.1033C38.6164 57.9765 38.05 57.8919 37.585 58.1413C39.1405 59.9588 40.8439 61.9793 43.1687 62.7908C47.2264 64.2026 52.9284 63.1416 56.9524 62.1399C60.4184 61.2776 64.2056 59.9969 67.2024 57.9934C68.4493 57.1607 69.3708 56.3787 70.8967 56.1801C73.5849 55.825 76.2013 56.0575 78.9023 55.4319C82.1147 54.688 84.9255 53.403 87.339 51.1332C89.7525 48.8634 92.445 45.4989 90.1498 42.2062C92.0223 41.7539 93.1763 40.4055 94.2752 38.8923C96.8409 35.3545 98.147 32.066 96.3083 27.8688C94.4697 23.6716 90.5641 21.2496 86.557 19.58C85.0946 18.9713 83.6363 18.574 82.0428 18.574C81.4045 18.574 80.8043 18.7135 80.1872 18.5444C80.2675 17.754 80.8255 16.9551 81.096 16.1901C81.73 14.3894 82.2161 12.3141 81.5778 10.4458C79.0037 2.94319 69.4553 0.191536 62.3712 1.2736C58.6389 1.84422 54.9996 3.57299 51.6857 5.35249C50.87 5.79208 49.0059 7.72796 48.0972 7.44054C47.6872 7.30951 47.1715 6.53177 46.8714 6.2528C46.0936 5.52156 45.244 4.8664 44.3015 4.36341C41.8076 3.03196 38.9588 3.2433 36.3677 4.32114C35.0912 4.85372 33.7978 6.06681 33.206 7.35177C32.7115 8.43383 33.13 8.92415 31.8112 8.81003C29.6471 8.62405 27.6816 7.63919 25.4414 7.61806C23.0617 7.59692 20.2297 7.89703 18.3699 9.52013C16.713 10.9657 15.3519 12.8551 14.2234 14.7276C13.4203 16.059 12.4016 17.3017 11.9747 18.8149C11.7845 19.487 11.8606 20.083 11.7253 20.7423C11.5351 21.6765 10.7447 22.4669 11.7634 23.3588" fill="white"/>
<path d="M11.7506 21.8244C8.46217 21.7653 6.08247 24.1534 4.42978 26.7487C2.67142 29.5046 1.15399 32.6409 0.410068 35.8321C-0.401482 39.315 -0.092924 43.0304 2.1008 45.9681C4.04091 48.5676 7.18144 49.7722 10.267 50.3893C11.7929 50.6936 13.3442 50.8543 14.8869 51.0445C16.1761 51.2051 18.0951 51.4291 18.8813 50.1146L16.9116 49.582C16.8989 50.8627 16.5861 52.1096 16.4255 53.3734C16.2776 54.5231 16.3072 55.6897 16.6242 56.8099C17.1652 58.6992 18.4628 60.242 20.1198 61.2691C24.2789 63.8475 29.2539 62.9599 33.6752 61.6623C34.8756 61.3114 36.0887 60.9818 37.2807 60.6056C38.3965 60.2547 39.504 59.7052 40.0746 58.6316C40.3789 58.0568 40.1338 57.2325 39.4448 57.0804C38.5952 56.8902 37.8555 56.8606 37.0482 57.2241C36.3804 57.5242 36.4395 58.4203 36.8326 58.8852C38.2063 60.4872 39.6223 62.1483 41.4948 63.1839C43.3673 64.2195 45.4976 64.4942 47.5645 64.5196C51.804 64.5788 56.1534 63.5897 60.1816 62.3259C62.3669 61.6369 64.5268 60.7873 66.5176 59.6503C67.4475 59.1219 68.2929 58.471 69.2016 57.9131C70.1104 57.3551 71.0361 57.186 72.097 57.1015C74.5866 56.9028 77.0805 56.9578 79.5193 56.3576C81.5863 55.8504 83.6109 55.0684 85.4157 53.9314C89.2199 51.5348 94.216 46.3612 91.0543 41.6609L90.4245 43.2122C92.9733 42.5528 94.5922 40.3844 95.9617 38.2837C97.3312 36.1829 98.3879 33.6849 98.2019 31.0981C97.8215 25.8357 93.7088 21.9385 89.2664 19.6645C87.9814 19.0051 86.6373 18.388 85.2509 17.9865C84.452 17.754 83.6278 17.6061 82.7951 17.5384C82.0343 17.4793 81.2058 17.6821 80.4661 17.5173L81.2058 18.8191C81.3411 17.8935 81.9075 17.0819 82.2034 16.2027C82.5288 15.239 82.7698 14.2542 82.8797 13.244C83.0741 11.4391 82.5838 9.76106 81.73 8.18023C80.3985 5.72022 78.2259 3.77588 75.7744 2.46979C70.4063 -0.396001 63.8589 -0.721468 58.1485 1.25246C56.2084 1.9203 54.3401 2.78681 52.5141 3.72094C51.8505 4.06331 51.17 4.38031 50.574 4.83258C50.0415 5.23413 49.5638 5.64837 49.0228 6.0161C48.9044 6.09641 48.7861 6.17249 48.6635 6.24012C48.5959 6.27816 48.5325 6.31198 48.4648 6.34579C48.3042 6.4261 48.5874 6.30775 48.431 6.3627C48.3845 6.37961 48.3423 6.39228 48.2958 6.40496C48.0844 6.46414 48.2873 6.39651 48.3211 6.40496C48.1943 6.36692 48.2535 6.49796 48.3761 6.41342C48.486 6.33734 48.4268 6.5529 48.4226 6.39651C48.4226 6.26971 47.8604 5.75826 47.7547 5.64414C47.4546 5.31867 47.1038 5.03124 46.7614 4.7565C45.1891 3.49268 43.4561 2.64732 41.4399 2.42753C37.8259 2.03443 33.3497 3.70826 32.0563 7.37292C31.976 7.59694 31.8915 7.84632 31.8534 8.07879C31.8407 8.15488 31.7858 8.15911 31.8534 8.08302C31.9168 8.01962 31.9464 7.92239 32.0267 7.85899C32.2169 7.7195 32.424 7.76601 32.0817 7.76178C31.2279 7.75755 30.3656 7.50395 29.5456 7.29261C27.6985 6.81075 25.9359 6.48105 24.0211 6.58672C22.2881 6.68394 20.534 6.98827 18.987 7.80827C17.33 8.68745 16.0535 10.2472 14.9461 11.7223C14.3713 12.4874 13.8471 13.2905 13.3442 14.1105C12.8412 14.9305 12.3128 15.6659 11.8436 16.4733C11.3745 17.2806 10.9602 18.1767 10.825 19.115C10.7573 19.58 10.7785 20.0661 10.6686 20.5226C10.584 20.8903 10.4065 21.2242 10.3008 21.5835C10.0219 22.5388 10.2797 23.4137 10.994 24.0984C11.9789 25.0368 13.4752 23.5447 12.4903 22.6022C12.2748 22.3993 12.2663 22.4289 12.3213 22.2091C12.41 21.8456 12.596 21.5116 12.689 21.1524C12.9172 20.2774 12.8158 19.3855 13.1582 18.5317C13.4752 17.7413 13.9697 17.0227 14.4347 16.3126C14.9334 15.5518 15.3984 14.7656 15.9014 14.0048C16.8313 12.6057 17.9134 11.1644 19.249 10.1288C20.4241 9.2158 21.9965 8.86498 23.4505 8.73818C24.2282 8.67055 25.0186 8.63673 25.8006 8.67899C26.6671 8.72549 27.5125 8.94529 28.3494 9.16086C29.2412 9.39333 30.1289 9.63849 31.0461 9.76529C31.752 9.86251 32.5508 9.99776 33.1933 9.59621C33.7217 9.26652 33.8443 8.69589 34.0091 8.14218C34.212 7.45743 34.6727 6.85301 35.1926 6.34579C36.3508 5.21723 38.0457 4.66351 39.6308 4.51557C41.4103 4.35072 43.063 4.75228 44.555 5.73713C45.2102 6.16826 45.8527 6.67127 46.3641 7.26725C46.846 7.82942 47.3532 8.4423 48.1478 8.49724C49.4117 8.58601 50.5487 7.49126 51.4659 6.76847C52.5141 5.94002 54.1499 5.20877 55.4941 4.5832C58.5162 3.17567 61.6821 2.16124 64.9579 2.09361C67.5532 2.03866 70.0935 2.43598 72.5451 3.32361C74.9966 4.21125 77.1016 5.55538 78.7247 7.49549C79.4644 8.38312 80.1026 9.47364 80.4915 10.5811C81.1044 12.3098 80.6775 14.1274 80.0857 15.8054C79.7941 16.6296 79.2742 17.3651 79.1474 18.2443C79.0671 18.7896 79.2742 19.4067 79.8871 19.5462C80.5507 19.6983 81.1636 19.6392 81.8314 19.618C82.4992 19.5969 83.1375 19.6561 83.7757 19.7913C84.9297 20.0322 86.0286 20.4634 87.098 20.9579C89.072 21.8667 90.9909 22.9826 92.576 24.4831C94.161 25.9836 95.4122 27.8857 95.9067 30.0498C96.4013 32.214 95.8307 34.2344 94.7951 36.09C94.178 37.1974 93.4552 38.2837 92.6352 39.2516C91.8701 40.1519 91.0078 40.8705 89.8455 41.1706C89.2157 41.3312 88.8353 42.1554 89.2157 42.7218C89.744 43.508 90.0568 44.3661 89.93 45.3213C89.8117 46.2259 89.3552 47.067 88.8479 47.811C87.7616 49.4129 86.2315 50.85 84.6169 51.9152C83.0022 52.9803 81.172 53.7327 79.2784 54.223C77.0382 54.8063 74.7684 54.7937 72.4774 54.9458C71.2982 55.0261 70.1231 55.1191 69.0284 55.5968C68.1661 55.9729 67.4222 56.5393 66.6444 57.0592C64.8945 58.2259 62.9713 59.105 60.9932 59.8067C57.2862 61.1212 53.2877 62.0976 49.3525 62.347C47.3025 62.4738 45.0327 62.4611 43.1095 61.6327C41.1863 60.8042 39.6773 58.9782 38.3036 57.372L38.088 59.0332C38.2951 58.9402 38.6586 59.0585 38.853 59.105L38.2232 57.5538C37.8809 58.1963 37.1539 58.4245 36.4902 58.6189C35.5434 58.8979 34.5924 59.1642 33.6498 59.4474C31.4646 60.0983 29.2286 60.7577 26.9334 60.8338C23.8647 60.9352 19.8619 59.8067 18.7418 56.5774C17.9387 54.2569 18.9785 51.9194 18.9996 49.5693C19.0081 48.5084 17.5625 48.1449 17.0299 49.0367C17.1145 48.893 17.106 49.0198 17.0595 48.9987C17.0342 48.986 17.2413 48.9057 17.1103 48.948C16.9961 48.986 17.1567 48.931 17.161 48.931C17.1018 48.9395 17.0384 48.9691 16.9792 48.986C16.9327 48.9944 16.6876 49.0325 16.844 49.0156C16.6918 49.0325 16.5354 49.0367 16.3832 49.0367C15.8422 49.0367 15.2969 48.9818 14.7601 48.9099C13.6358 48.7662 12.5115 48.6521 11.3956 48.4534C8.84681 47.9969 6.06556 47.2403 4.23957 45.2833C-0.109831 40.6169 2.89967 33.6004 5.56257 28.9213C6.88556 26.5965 8.75805 23.8829 11.7253 23.9336C13.0863 23.959 13.0863 21.8456 11.7253 21.8202L11.7506 21.8244Z" fill="black"/>
</svg>
