<svg width="41" height="28" viewBox="0 0 41 28" fill="none" xmlns="http://www.w3.org/2000/svg">
<path d="M5.64949 9.66547C4.34831 9.64198 3.40671 10.5902 2.75277 11.6207C2.05703 12.7149 1.45661 13.9602 1.16226 15.2273C0.841141 16.6102 0.963232 18.0854 1.83124 19.2518C2.59891 20.2839 3.84155 20.7623 5.06246 21.0073C5.66622 21.1281 6.28002 21.1919 6.89047 21.2674C7.40057 21.3312 8.15987 21.4201 8.47095 20.8982C8.21172 20.8277 7.95081 20.7572 7.69158 20.6867C7.68656 21.1952 7.5628 21.6903 7.49925 22.1921C7.44071 22.6486 7.45242 23.1118 7.57786 23.5566C7.79193 24.3068 8.30538 24.9193 8.96099 25.3272C10.6067 26.3509 12.5752 25.9985 14.3246 25.4833C14.7996 25.344 15.2796 25.213 15.7512 25.0637C16.1928 24.9244 16.6309 24.7062 16.8567 24.2799C16.9771 24.0517 16.8801 23.7244 16.6075 23.664C16.2714 23.5885 15.9787 23.5767 15.6592 23.7211C15.395 23.8402 15.4184 24.196 15.5739 24.3806C16.1175 25.0167 16.6778 25.6763 17.4187 26.0874C18.1429 26.4902 19.0025 26.6077 19.8203 26.6178C21.4978 26.6413 23.2188 26.2485 24.8127 25.7467C25.6773 25.4732 26.532 25.1358 27.3197 24.6844C27.6876 24.4746 28.0221 24.2161 28.3817 23.9946C28.7446 23.7714 29.1076 23.706 29.5274 23.6724C30.5124 23.5935 31.4992 23.6153 32.4642 23.377C33.2821 23.1756 34.0832 22.8651 34.7973 22.4137C36.3025 21.4621 38.2794 19.4079 37.0284 17.5416C36.9448 17.7464 36.8611 17.9528 36.7792 18.1576C37.7877 17.8958 38.4283 17.0348 38.9701 16.2007C39.517 15.3548 39.9301 14.3747 39.8565 13.3476C39.706 11.2582 38.0787 9.71079 36.3209 8.80787C35.8125 8.54606 35.2807 8.30103 34.7321 8.1416C34.416 8.04929 34.0899 7.99055 33.7604 7.9637C33.4593 7.9402 33.1315 8.02076 32.8389 7.95531C32.9359 8.12817 33.0329 8.29936 33.1315 8.47222C33.1851 8.10468 33.4092 7.78245 33.5262 7.43336C33.655 7.05072 33.7504 6.65968 33.7938 6.25857C33.8708 5.54194 33.6768 4.87567 33.3389 4.24799C32.8121 3.27123 31.9524 2.49923 30.9824 1.98064C28.8584 0.842766 26.2677 0.713538 24.0082 1.49729C23.2405 1.76246 22.5013 2.10651 21.7788 2.47741C21.5162 2.61335 21.247 2.73922 21.0111 2.9188C20.8004 3.07823 20.6114 3.2427 20.3973 3.38871C20.3505 3.4206 20.3037 3.45081 20.2552 3.47766C20.2284 3.49277 20.2033 3.50619 20.1766 3.51962C20.113 3.55151 20.2251 3.50451 20.1632 3.52633C20.1448 3.53305 20.1281 3.53808 20.1097 3.54312C20.0261 3.56661 20.1063 3.53976 20.1197 3.54479C20.0695 3.52969 20.093 3.58172 20.1415 3.54815C20.1849 3.51794 20.1615 3.60353 20.1599 3.54144C20.1599 3.49109 19.9374 3.28802 19.8956 3.2427C19.7769 3.11348 19.638 2.99935 19.5026 2.89027C18.8804 2.38846 18.1947 2.05281 17.3969 1.96554C15.967 1.80946 14.1958 2.47405 13.684 3.92912C13.6523 4.01807 13.6188 4.11709 13.6038 4.20939C13.5988 4.2396 13.577 4.24128 13.6054 4.21107C13.6305 4.1859 13.6422 4.1473 13.674 4.12212C13.7493 4.06674 13.8312 4.0852 13.6958 4.08352C13.3579 4.08184 13.0167 3.98115 12.6923 3.89723C11.9614 3.70591 11.264 3.575 10.5064 3.61696C9.82064 3.65556 9.12656 3.7764 8.51444 4.10198C7.85883 4.45106 7.35374 5.07035 6.91556 5.65607C6.6881 5.95984 6.48071 6.27871 6.28169 6.6043C6.08936 6.91981 5.87361 7.2219 5.68796 7.54245C5.50065 7.86636 5.33841 8.2188 5.2849 8.59138C5.25814 8.77599 5.2665 8.96899 5.22302 9.15024C5.18957 9.29626 5.11932 9.42884 5.07751 9.57149C4.96713 9.95078 5.06915 10.2982 5.35179 10.5701C5.74148 10.9426 6.33354 10.3502 5.94385 9.97596C5.85855 9.8954 5.85521 9.90715 5.87695 9.81988C5.91207 9.67554 5.98566 9.54296 6.02246 9.40031C6.11277 9.0529 6.07263 8.69879 6.2081 8.35977C6.33354 8.04594 6.52921 7.76063 6.71319 7.47868C6.91054 7.17659 7.09451 6.86443 7.29353 6.56234C7.66148 6.00683 8.08963 5.43453 8.61813 5.02336C9.08308 4.66085 9.70524 4.52155 10.2806 4.4712C10.5883 4.44435 10.9011 4.43092 11.2105 4.44771C11.5533 4.46617 11.8878 4.55344 12.219 4.63903C12.5719 4.73134 12.9231 4.82868 13.286 4.87902C13.5653 4.91762 13.8814 4.97133 14.1356 4.81189C14.3447 4.68099 14.3932 4.45442 14.4584 4.23457C14.5387 3.96268 14.721 3.72269 14.9267 3.5213C15.3849 3.0732 16.0556 2.85334 16.6828 2.7946C17.3869 2.72915 18.0408 2.88859 18.6312 3.27962C18.8904 3.45081 19.1447 3.65053 19.347 3.88716C19.5377 4.11037 19.7384 4.35372 20.0528 4.37554C20.5529 4.41078 21.0028 3.97611 21.3657 3.68913C21.7805 3.36018 22.4277 3.06984 22.9596 2.82146C24.1554 2.26259 25.4081 1.8598 26.7042 1.83295C27.7311 1.81113 28.7363 1.96889 29.7063 2.32133C30.6412 2.66034 31.5092 3.20746 32.1515 3.97779C32.4442 4.33023 32.6967 4.76322 32.8506 5.20293C33.0931 5.88935 32.9242 6.61101 32.69 7.27729C32.5746 7.60455 32.3689 7.89657 32.3187 8.24565C32.2869 8.46215 32.3689 8.70718 32.6114 8.76256C32.874 8.82298 33.1165 8.79948 33.3807 8.79109C33.6383 8.7827 33.8975 8.8062 34.1501 8.8599C34.6067 8.95556 35.0415 9.12675 35.4646 9.32311C36.2457 9.68394 37.005 10.127 37.6322 10.7228C38.266 11.3236 38.7544 12.0738 38.9501 12.9331C39.1407 13.7722 38.92 14.5946 38.5102 15.3313C38.266 15.7711 37.98 16.2024 37.6556 16.5867C37.3529 16.9442 37.0117 17.2295 36.5517 17.3486C36.3025 17.4124 36.152 17.7397 36.3025 17.9646C36.5116 18.2767 36.6354 18.6174 36.5852 18.9967C36.5384 19.3559 36.3577 19.6898 36.157 19.9852C35.7272 20.6213 35.1218 21.1919 34.4829 21.6148C33.8356 22.0445 33.1198 22.3365 32.3706 22.5312C31.4842 22.7628 30.586 22.7577 29.6796 22.8181C29.2129 22.85 28.748 22.887 28.3148 23.0766C27.9736 23.226 27.6793 23.4509 27.3715 23.6573C26.6791 24.1205 25.9182 24.4696 25.1355 24.7482C23.6687 25.2701 22.0865 25.6578 20.5295 25.7568C19.7183 25.8072 18.8202 25.8021 18.0592 25.4732C17.2715 25.1325 16.7012 24.4192 16.1576 23.7815C16.1292 24.0013 16.1008 24.2212 16.0723 24.441C16.1543 24.4041 16.2981 24.4511 16.3751 24.4696C16.2914 24.2648 16.2078 24.0584 16.1259 23.8536C15.9904 24.1087 15.7027 24.1994 15.4401 24.2766C15.0655 24.3873 14.6892 24.4931 14.3162 24.6055C13.4516 24.864 12.5668 25.1258 11.6587 25.156C10.4445 25.1963 8.86064 24.7482 8.41743 23.466C8.09966 22.5446 8.51109 21.6165 8.51945 20.6834C8.5228 20.2621 7.95081 20.1178 7.74008 20.4719C7.77353 20.4148 7.77019 20.4652 7.75179 20.4568C7.74176 20.4518 7.82371 20.4199 7.77186 20.4367C7.7267 20.4518 7.79026 20.43 7.79193 20.43C7.76852 20.4333 7.74343 20.4451 7.72001 20.4518C7.70162 20.4551 7.60461 20.4702 7.6665 20.4635C7.60629 20.4702 7.5444 20.4719 7.48419 20.4719C7.27012 20.4736 7.05437 20.4501 6.84197 20.4216C6.39709 20.3645 5.95221 20.3192 5.51068 20.2403C4.50218 20.0591 3.40169 19.7586 2.67919 18.9816C0.958213 17.1288 2.14901 14.3428 3.20267 12.485C3.72615 11.5619 4.46706 10.4845 5.64113 10.5046C6.18803 10.5147 6.18803 9.67554 5.64949 9.66547Z" fill="black" stroke="black"/>
</svg>
