<svg width="96" height="60" viewBox="0 0 96 60" fill="none" xmlns="http://www.w3.org/2000/svg">
<path d="M2.06695 25.0085C4.56014 27.3622 7.11577 29.7799 10.2429 31.291C11.7954 32.0448 13.5154 32.5668 15.2476 32.6335C16.9798 32.7003 18.7948 32.2368 20.4724 31.6387C21.1142 31.413 20.5352 31.1778 20.1286 31.318C18.4384 31.9096 16.7218 32.3522 14.9254 32.117C13.3247 31.9033 11.7701 31.3076 10.3506 30.5428C7.57431 29.0457 5.26273 26.8337 2.98193 24.6852C2.76954 24.48 1.86712 24.8098 2.0639 24.999L2.06695 25.0085Z" fill="black"/>
<path d="M20.3908 31.3498C20.3908 31.3498 19.8476 31.2921 19.8064 31.2948C19.4872 31.2811 19.1645 31.2896 18.8483 31.2855C18.1557 31.286 17.4727 31.2835 16.7809 31.2208C15.6057 31.1233 14.4676 30.846 13.3792 30.3955C11.2275 29.5074 9.41461 28.1019 7.96744 26.2963C7.79315 26.079 6.85952 26.3767 7.04941 26.6101C8.76105 28.7512 11.0548 30.3812 13.679 31.1711C15.0147 31.5742 16.3983 31.6997 17.7895 31.7177C18.5389 31.7306 19.2757 31.737 20.0216 31.772C20.5462 31.8041 21.0568 31.6936 21.3601 31.2295C21.473 31.057 21.0238 31.0639 20.9605 31.0631C20.7579 31.0858 20.5071 31.1552 20.3972 31.3372L20.3908 31.3498Z" fill="black"/>
<path d="M19.7887 30.9435C17.4726 30.2968 15.3707 29.2354 13.4733 27.7624C11.5759 26.2893 9.99564 24.4946 8.5497 22.5942C8.38494 22.3738 7.44828 22.6621 7.63169 22.908C10.589 26.7825 14.213 29.9826 18.9963 31.3223C19.2138 31.3789 19.4798 31.357 19.6837 31.2394C19.7634 31.193 20.0253 30.9941 19.7952 30.931L19.7887 30.9435Z" fill="black"/>
<path d="M20.0917 30.7419C18.9061 29.9865 17.7045 29.2467 16.6253 28.3314C15.5461 27.416 14.6921 26.4499 13.8709 25.3892C12.0513 23.0412 10.7542 20.39 9.40946 17.754C9.26458 17.4643 8.33396 17.7716 8.4294 17.9721C9.76193 20.57 11.0404 23.1957 12.8254 25.5338C13.64 26.607 14.5283 27.6147 15.5382 28.5101C16.6578 29.4861 17.9252 30.2679 19.1672 31.0683C19.4181 31.2297 20.2703 30.8739 20.0852 30.7545L20.0917 30.7419Z" fill="black"/>
<path d="M20.3777 30.6507C19.3666 29.3567 18.4227 28.0099 17.7337 26.5083C17.011 24.9334 16.4831 23.2125 16.1985 21.4979C16.1546 21.2285 15.178 21.4245 15.2185 21.716C15.5087 23.4813 16.0674 25.2659 16.8244 26.8823C17.5138 28.3524 18.4547 29.6897 19.4597 30.9645C19.634 31.1819 20.5676 30.884 20.3777 30.6507Z" fill="black"/>
<path d="M20.6521 30.4582C19.8206 27.7529 19.1225 25.0051 18.8112 22.1864C18.4999 19.3677 18.6622 16.3559 19.0383 13.4544C19.074 13.1386 18.1043 13.2905 18.0755 13.5621C17.7064 16.4194 17.5235 19.3013 17.8089 22.1702C18.0943 25.0392 18.8162 27.8949 19.672 30.6763C19.7632 30.9622 20.7246 30.7185 20.6521 30.4582Z" fill="black"/>
<path d="M20.587 30.8463C21.9972 27.6989 23.3697 24.532 24.0463 21.1252C24.723 17.7184 24.8916 14.2323 25.2273 10.7768C25.2458 10.5715 24.28 10.6697 24.2473 10.995C23.9142 14.4917 23.7451 18.0094 23.0299 21.4599C22.3147 24.9105 20.9923 27.8725 19.6146 30.9571C19.5104 31.1897 20.4568 31.1292 20.5774 30.8493L20.587 30.8463Z" fill="black"/>
<path d="M20.5484 31.3834C22.1337 29.6077 23.6034 27.7323 24.8849 25.7281C26.1664 23.7238 27.0744 21.5028 28.105 19.3372C28.2123 19.1141 27.2754 19.1715 27.1422 19.4449C26.144 21.5477 25.2845 23.6903 24.0255 25.6663C22.7665 27.6424 21.2518 29.5741 19.6535 31.375C19.416 31.6502 20.3593 31.5802 20.5389 31.3865L20.5484 31.3834Z" fill="black"/>
<path d="M20.7581 31.5475C23.8518 30.5186 26.7801 29.0702 29.4512 27.2104C31.8704 25.515 34.1639 23.5239 35.6459 20.9309C35.7593 20.7268 34.8289 20.7716 34.6832 21.0386C33.256 23.5406 31.0332 25.4568 28.6971 27.0836C26.1472 28.8627 23.3652 30.2435 20.4144 31.2267C19.7666 31.4334 20.3485 31.6781 20.7581 31.5475Z" fill="black"/>
<path d="M20.4687 31.9233C23.5023 29.4231 26.5365 26.8913 29.3552 24.1448C31.847 21.7229 34.3838 19.2448 35.4399 15.8429C35.5225 15.5752 34.5662 15.6703 34.4772 15.9506C33.4375 19.3052 30.9295 21.7427 28.4697 24.1333C25.6896 26.836 22.7067 29.3305 19.7145 31.7965C19.3055 32.1264 20.2674 32.0819 20.4656 31.9137L20.4687 31.9233Z" fill="black"/>
<path d="M12.0465 34.148C14.9418 33.7807 17.9012 33.351 20.4357 31.7868C20.6205 31.6753 20.5399 31.5541 20.3696 31.514C20.1617 31.4543 19.8599 31.5611 19.6846 31.6695C17.4497 33.0542 14.7856 33.3897 12.226 33.7233C12.096 33.7438 11.668 33.8173 11.6625 33.9975C11.6505 34.1903 11.9291 34.1749 12.0621 34.164L12.0465 34.148Z" fill="black"/>
<path d="M16.1499 35.7255C16.9847 35.2493 17.8038 34.7571 18.5362 34.1246C19.2687 33.4921 19.9248 32.653 20.5549 31.8642C20.6899 31.6952 20.4503 31.6352 20.3238 31.6335C20.1246 31.6341 19.8045 31.6837 19.6694 31.8528C19.0748 32.5883 18.4894 33.3523 17.7886 33.9852C17.1294 34.5839 16.3643 35.0483 15.5932 35.4937C15.4689 35.5649 15.2902 35.6954 15.4817 35.8022C15.6481 35.8961 16.0096 35.8123 16.169 35.7194L16.1499 35.7255Z" fill="black"/>
<path d="M20.6536 32.0426C22.4409 32.2492 24.2295 32.361 26.0317 32.1535C26.1837 32.1365 26.5515 32.0716 26.5951 31.8793C26.6387 31.6869 26.2969 31.7015 26.1955 31.7129C24.5549 31.9003 22.9118 31.7841 21.2696 31.6047C21.0422 31.5828 20.7699 31.6172 20.5846 31.7603C20.4408 31.8691 20.4453 32.0146 20.6506 32.0331L20.6536 32.0426Z" fill="black"/>
<path d="M19.4825 32.1223C21.0277 32.952 22.6244 33.7127 24.3629 34.0293C24.5869 34.0733 24.8692 34.0043 25.048 33.8738C25.2012 33.7619 25.1808 33.632 24.982 33.601C23.3033 33.3072 21.7572 32.5408 20.2653 31.7467C20.0768 31.6493 19.7594 31.7401 19.578 31.8294C19.4507 31.891 19.2749 32.0311 19.4664 32.1379L19.4825 32.1223Z" fill="black"/>
<path d="M19.4287 31.3942C19.7482 35.7848 21.1213 39.8918 23.2664 43.721C24.2709 45.5208 25.3931 47.2621 26.7647 48.7979C28.1363 50.3337 29.8046 51.6805 31.5545 52.8227C31.8084 52.9936 32.6575 52.6283 32.4725 52.5088C30.7477 51.3796 29.1419 50.0969 27.7608 48.5642C26.3797 47.0314 25.1642 45.1624 24.1384 43.2958C22.0557 39.5307 20.7295 35.4718 20.4183 31.173C20.4026 30.9261 19.4233 31.081 19.4383 31.3911L19.4287 31.3942Z" fill="black"/>
<path d="M29.9848 50.6993C29.8687 50.6314 29.7911 50.5197 29.6715 50.4739C29.5017 50.4021 29.264 50.4464 29.1051 50.5076C28.9907 50.5441 28.7777 50.633 28.7917 50.7755C28.8056 50.918 28.9521 51.0812 29.0358 51.212C29.1382 51.3683 29.2595 51.5185 29.3714 51.6717C29.6172 51.9817 29.8566 52.3042 30.163 52.5738C30.707 53.0615 31.3942 53.4722 32.1068 53.6332C32.5262 53.7304 33.0265 53.6862 33.3901 53.4442C33.6391 53.2704 33.6644 53.0209 33.5317 52.7693C33.3586 52.4571 33.0644 52.2256 32.7792 52.0227C32.4407 51.7843 32.0959 51.5584 31.7444 51.3451C31.3522 51.1028 30.9631 50.8701 30.5644 50.6404C30.3729 50.5335 30.1779 50.4488 29.9864 50.3419C29.8326 50.2545 29.7263 50.152 29.543 50.1369C29.3377 50.1185 28.7426 50.1613 28.745 50.465C28.7369 50.604 28.8596 50.6594 28.9891 50.6706C29.2195 50.702 29.4858 50.6485 29.6742 50.515C29.8179 50.4062 29.8135 50.2607 29.6081 50.2422L29.5795 50.2513C29.5795 50.2513 29.6709 50.2746 29.7181 50.291C29.7121 50.272 29.709 50.2624 29.7125 50.2404L28.9145 50.5684C28.9777 50.5692 29.0714 50.6653 29.1247 50.7008C29.2534 50.7752 29.398 50.834 29.5363 50.9054C29.8409 51.0706 30.1296 51.2515 30.4247 51.4197C30.9832 51.7559 31.5639 52.0955 32.0835 52.507C32.2903 52.6615 32.5247 52.8701 32.6132 53.1148C32.6284 53.1624 32.6436 53.21 32.6463 53.2512C32.6385 53.3586 32.5468 53.3669 32.7534 53.2905C32.6486 53.3239 32.8966 53.2133 32.9248 53.2358C32.9217 53.2263 32.849 53.2285 32.8269 53.225C32.7511 53.2177 32.6817 53.1979 32.6094 53.1685C32.0392 52.9935 31.4937 52.6322 31.0498 52.2279C30.7872 51.9968 30.5695 51.7094 30.3549 51.4315C30.246 51.2878 30.1277 51.147 30.0285 51.0003C29.9352 50.8726 29.7762 50.7029 29.7687 50.5478L28.8792 50.8526C28.8792 50.8526 28.9698 50.9391 29.0106 50.9681C29.0669 51.0131 29.1296 51.0456 29.1925 51.078C29.381 51.1753 29.6984 51.0846 29.8799 50.9952C30.0072 50.9336 30.1829 50.7936 29.9913 50.6867L29.9848 50.6993Z" fill="black"/>
<path d="M32.6723 52.7075C32.5687 52.6461 32.4682 52.5942 32.3646 52.5328L32.4274 52.5652C32.3615 52.5233 32.2957 52.4813 32.2299 52.4393C32.161 52.3878 32.089 52.3268 32.0041 52.2909C31.9568 52.2745 31.9127 52.2676 31.8685 52.2607C31.8148 52.2569 31.7515 52.2561 31.6913 52.2648C31.6216 52.2765 31.5614 52.2852 31.4947 52.3065C31.4375 52.3247 31.3708 52.346 31.3136 52.3642L31.2245 52.4137C31.1799 52.4384 31.1413 52.4821 31.1154 52.5324L31.1115 52.5861C31.1115 52.5861 31.1549 52.6563 31.2022 52.6727C31.2147 52.6792 31.2368 52.6826 31.2524 52.6986L31.1896 52.6662C31.1896 52.6662 31.2836 52.7307 31.3274 52.7692C31.3807 52.8047 31.434 52.8401 31.4873 52.8756C31.616 52.95 31.7447 53.0244 31.8704 53.0893C31.9176 53.1057 31.9618 53.1126 32.006 53.1195C32.0597 53.1234 32.123 53.1242 32.1832 53.1155C32.2529 53.1037 32.3131 53.0951 32.3797 53.0738C32.4369 53.0556 32.5035 53.0343 32.5607 53.0161L32.65 52.9666C32.6946 52.9418 32.7331 52.8981 32.7591 52.8478L32.7628 52.7941C32.7628 52.7941 32.7195 52.724 32.6723 52.7075Z" fill="black"/>
<path d="M32.811 52.7473C32.811 52.7473 32.71 52.727 32.6532 52.7136L32.7351 52.74C32.7351 52.74 32.6311 52.7102 32.5778 52.6747L32.6407 52.7071C32.6407 52.7071 32.6407 52.7071 32.6281 52.7006C32.5999 52.6781 32.5623 52.6587 32.5276 52.6488C32.4804 52.6323 32.4267 52.6285 32.376 52.6341C32.3128 52.6333 32.2525 52.642 32.1923 52.6507C32.1226 52.6625 32.0624 52.6711 31.9988 52.7019L31.8844 52.7384C31.8238 52.7787 31.7727 52.8161 31.7342 52.8598L31.6988 52.9131C31.6988 52.9131 31.6915 52.9889 31.7322 53.0179C31.7981 53.0599 31.8734 53.0988 31.9522 53.1157C32.0341 53.142 32.1226 53.1558 32.2014 53.1726C32.2582 53.186 32.3088 53.1804 32.372 53.1812C32.4352 53.182 32.505 53.1703 32.5622 53.152C32.6194 53.1338 32.686 53.1125 32.7432 53.0943C32.8003 53.0761 32.8449 53.0513 32.8865 53.0171L32.9536 52.9642C32.9536 52.9642 33.0051 52.8953 33.0025 52.8541L32.9873 52.8065C32.9873 52.8065 32.8868 52.7546 32.8331 52.7507L32.811 52.7473Z" fill="black"/>
<path d="M32.8542 53.3108C32.9781 53.2713 33.2452 53.1546 33.1429 52.9983C33.0531 52.8485 32.6279 52.9631 32.5135 52.9996C32.3897 53.0391 32.1225 53.1558 32.2249 53.3121C32.3146 53.4619 32.7399 53.3473 32.8542 53.3108Z" fill="black"/>
<path d="M19.2207 31.828C23.0063 31.5861 26.6937 30.6093 30.1946 29.1461C31.899 28.4345 33.5262 27.5796 35.1009 26.6259C36.7617 25.6133 38.1975 24.389 39.6468 23.108C39.8195 22.9584 39.5136 22.8881 39.4157 22.8773C39.1913 22.8649 38.9341 22.947 38.7613 23.0966C37.4208 24.2905 36.0872 25.4401 34.5506 26.3816C33.0141 27.3231 31.4695 28.1412 29.8414 28.8285C26.5215 30.2339 22.9959 31.159 19.3971 31.3938C18.9635 31.4167 18.5433 31.8761 19.2207 31.828Z" fill="black"/>
<path d="M58.7974 6.63961C59.8495 9.90285 60.9255 13.2523 62.9388 16.0823C63.9366 17.4905 65.1929 18.7761 66.679 19.6685C68.1651 20.561 69.979 21.0285 71.7374 21.312C72.4085 21.4231 72.0143 20.9382 71.5904 20.8653C69.8242 20.5702 68.1065 20.1317 66.6452 19.0606C65.3452 18.1028 64.2694 16.8321 63.3934 15.4784C61.6808 12.8296 60.7198 9.7779 59.7551 6.79673C59.6677 6.51466 58.7179 6.36927 58.7994 6.62979L58.7974 6.63961Z" fill="black"/>
<path d="M71.805 21.0194C71.805 21.0194 71.3566 20.7074 71.3192 20.6899C71.046 20.5243 70.7591 20.3763 70.4839 20.2205C69.8766 19.8875 69.2792 19.5564 68.703 19.1684C67.7199 18.5172 66.8559 17.7262 66.1188 16.8074C64.6605 14.993 63.7482 12.8883 63.3491 10.609C63.301 10.3346 62.3393 10.1461 62.3934 10.4421C62.8628 13.1428 64.0885 15.6758 66.0082 17.6315C66.9848 18.6279 68.1371 19.4039 69.3478 20.0896C69.9984 20.4616 70.6411 20.822 71.2781 21.2117C71.7224 21.4924 72.2231 21.6415 72.7124 21.3807C72.8944 21.2839 72.4974 21.0736 72.4423 21.0425C72.2538 20.9648 72.0005 20.9049 71.8166 21.0115L71.805 21.0194Z" fill="black"/>
<path d="M71.4728 20.3735C69.7542 18.6916 68.4229 16.7494 67.4691 14.5448C66.5152 12.3402 65.9942 10.0064 65.6418 7.64457C65.6035 7.37212 64.6438 7.17387 64.6861 7.47768C65.4128 12.2974 67.0485 16.8469 70.596 20.324C70.7594 20.4783 71.003 20.5872 71.2384 20.5823C71.3305 20.58 71.6558 20.5317 71.4846 20.3657L71.4728 20.3735Z" fill="black"/>
<path d="M71.8355 20.3426C71.16 19.1097 70.463 17.8828 69.9578 16.561C69.4525 15.2391 69.1692 13.9812 68.9601 12.6562C68.4957 9.72214 68.6352 6.77393 68.7257 3.81613C68.7382 3.49249 67.7745 3.31381 67.7617 3.53547C67.6789 6.45403 67.5352 9.37089 67.9741 12.2796C68.1714 13.6124 68.4649 14.9233 68.9189 16.1943C69.4303 17.5887 70.1648 18.8842 70.8681 20.1837C71.0103 20.4459 71.9285 20.5443 71.8238 20.3505L71.8355 20.3426Z" fill="black"/>
<path d="M72.13 20.4004C71.8668 18.7795 71.6878 17.1446 71.807 15.4968C71.9317 13.7685 72.2975 12.0059 72.8736 10.3661C72.9648 10.1089 72.0144 9.8105 71.9096 10.0855C71.314 11.7724 70.9446 13.6056 70.8299 15.3868C70.7264 17.0072 70.9072 18.6323 71.1743 20.2335C71.2224 20.5079 72.1841 20.6963 72.13 20.4004Z" fill="black"/>
<path d="M72.4632 20.3638C73.0369 17.5924 73.7479 14.8479 74.8321 12.2275C75.9163 9.60707 77.5086 7.04548 79.2351 4.68341C79.4184 4.42382 78.4954 4.09009 78.3394 4.31427C76.6402 6.64093 75.0925 9.0788 73.9614 11.7308C72.8303 14.3828 72.0882 17.2332 71.4992 20.0831C71.4415 20.3775 72.4014 20.6268 72.4632 20.3638Z" fill="black"/>
<path d="M72.2193 20.6726C74.9706 18.5929 77.6982 16.478 79.9315 13.8178C82.1647 11.1576 83.9908 8.18327 85.9487 5.31628C86.0638 5.14521 85.17 4.76629 84.9847 5.03569C83.0093 7.94001 81.1676 10.9418 78.8795 13.6218C76.5914 16.3018 74.0063 18.2613 71.3137 20.3016C71.1103 20.4553 71.969 20.858 72.2095 20.6707L72.2193 20.6726Z" fill="black"/>
<path d="M71.9269 21.1248C74.1713 20.3316 76.3623 19.3955 78.4505 18.2558C80.5386 17.1161 82.4037 15.6066 84.3497 14.2047C84.5511 14.0607 83.7022 13.66 83.4539 13.8355C81.5666 15.198 79.7818 16.6621 77.7269 17.7879C75.672 18.9138 73.4145 19.8777 71.1466 20.6866C70.8058 20.8135 71.6663 21.2062 71.917 21.1229L71.9269 21.1248Z" fill="black"/>
<path d="M72.0318 21.3696C75.2386 21.9573 78.5025 22.0975 81.7391 21.7535C84.6757 21.4322 87.6444 20.7912 90.1918 19.232C90.3894 19.1077 89.5524 18.6991 89.2962 18.8629C86.8407 20.3688 83.9699 20.9781 81.1392 21.2793C78.0477 21.611 74.9446 21.4818 71.8849 20.923C71.2176 20.7922 71.6098 21.2869 72.0318 21.3696Z" fill="black"/>
<path d="M71.5971 21.5596C75.4597 20.8287 79.338 20.0705 83.1308 19.0202C86.4808 18.0973 89.8973 17.1465 92.4608 14.6734C92.6621 14.4784 91.7781 14.1014 91.5651 14.3042C89.0388 16.7439 85.6671 17.6728 82.3602 18.5839C78.6223 19.6143 74.8069 20.3646 70.9971 21.0854C70.4797 21.1776 71.3442 21.6017 71.599 21.5497L71.5971 21.5596Z" fill="black"/>
<path d="M63.1442 19.4547C65.8587 20.5267 68.6594 21.5748 71.6339 21.424C71.8496 21.4154 71.8373 21.2703 71.7074 21.1532C71.5538 21.0008 71.2379 20.9491 71.032 20.9597C68.4065 21.0973 65.9101 20.1088 63.5059 19.1689C63.3822 19.1243 62.9717 18.9827 62.8801 19.1379C62.7768 19.3011 63.0284 19.4218 63.1502 19.4762L63.1442 19.4547Z" fill="black"/>
<path d="M65.9812 22.8129C66.9421 22.7974 67.8971 22.7604 68.8436 22.5587C69.79 22.3569 70.7691 21.9374 71.7011 21.5494C71.9008 21.4662 71.7197 21.2982 71.6096 21.2359C71.4347 21.1405 71.1303 21.0299 70.9305 21.113C70.0553 21.4714 69.1743 21.8592 68.2554 22.0766C67.3893 22.2839 66.4951 22.3226 65.6048 22.3418C65.4617 22.3443 65.2422 22.3726 65.3586 22.5585C65.4593 22.7208 65.8165 22.8214 66.0009 22.8168L65.9812 22.8129Z" fill="black"/>
<path d="M71.7018 21.7532C73.1688 22.7948 74.6826 23.7539 76.3621 24.4397C76.5035 24.4979 76.8571 24.6182 76.9879 24.4706C77.1188 24.323 76.8122 24.1712 76.7179 24.1323C75.1896 23.5068 73.8055 22.6139 72.4525 21.666C72.2637 21.5373 72.0084 21.4363 71.7772 21.4725C71.5988 21.4987 71.5326 21.6284 71.7037 21.7435L71.7018 21.7532Z" fill="black"/>
<path d="M70.6369 21.2593C71.5918 22.7304 72.6251 24.1659 73.9964 25.2804C74.1715 25.4268 74.4522 25.5022 74.6717 25.4738C74.8599 25.4496 74.9046 25.3259 74.7452 25.203C73.4153 24.1373 72.4292 22.7212 71.5039 21.3069C71.3856 21.1308 71.0637 21.0576 70.8617 21.0486C70.7204 21.0413 70.4989 21.0794 70.6153 21.2652L70.6369 21.2593Z" fill="black"/>
<path d="M70.9403 20.5952C69.1065 24.5972 68.3327 28.858 68.3693 33.247C68.3832 35.3081 68.5285 37.3746 68.9912 39.381C69.454 41.3875 70.2678 43.371 71.2517 45.2146C71.392 45.4867 72.3121 45.5753 72.2074 45.3815C71.2393 43.5614 70.4494 41.6641 69.9768 39.6557C69.5042 37.6473 69.3387 35.424 69.3383 33.2942C69.3255 28.9914 70.1173 24.7953 71.9142 20.8778C72.0192 20.6538 71.0864 20.3181 70.9502 20.5971L70.9403 20.5952Z" fill="black"/>
<path d="M70.8982 42.5979C70.8291 42.4824 70.8149 42.3472 70.7321 42.2494C70.6178 42.1047 70.3881 42.0291 70.2194 42.0063C70.1016 41.9832 69.8721 41.9586 69.8157 42.0902C69.7594 42.2218 69.8092 42.4354 69.8196 42.5903C69.834 42.7766 69.8681 42.9666 69.8923 43.1548C69.9585 43.5448 70.0131 43.9427 70.1519 44.3266C70.3939 45.016 70.7985 45.7067 71.3456 46.191C71.6664 46.478 72.1261 46.6802 72.5613 46.6432C72.8632 46.6106 73.0056 46.4042 73.0103 46.1198C73.0089 45.7628 72.8625 45.4182 72.7103 45.1031C72.5284 44.7312 72.3349 44.3671 72.1295 44.011C71.9024 43.6098 71.6734 43.2185 71.4346 42.8252C71.3181 42.6394 71.1881 42.4712 71.0716 42.2854C70.9789 42.1347 70.9351 41.9936 70.7817 41.8923C70.6107 41.7772 70.0684 41.5283 69.9243 41.7956C69.8503 41.9135 69.9311 42.0211 70.0393 42.0932C70.2261 42.2318 70.4853 42.3131 70.7146 42.2867C70.893 42.2605 70.9592 42.1309 70.7881 42.0158L70.7586 42.0101C70.7586 42.0101 70.8275 42.0745 70.861 42.1116C70.8649 42.092 70.8668 42.0822 70.8805 42.0645L70.0231 41.9678C70.0781 41.999 70.1139 42.1283 70.1436 42.185C70.2205 42.3122 70.319 42.4334 70.4058 42.5625C70.5933 42.854 70.7592 43.1515 70.9368 43.441C71.2646 44.0046 71.61 44.5818 71.8674 45.1927C71.9742 45.4276 72.0792 45.7233 72.039 45.9804C72.0294 46.0294 72.0198 46.0785 72.0023 46.1158C71.9438 46.2063 71.8594 46.1694 72.0772 46.2019C71.9693 46.1807 72.2399 46.2032 72.2538 46.2365C72.2557 46.2267 72.1909 46.1935 72.1732 46.1799C72.1103 46.137 72.059 46.0862 72.0098 46.0256C71.5943 45.5977 71.2901 45.0184 71.0957 44.4504C70.9767 44.1214 70.9243 43.7647 70.87 43.4177C70.8438 43.2394 70.8079 43.0591 70.7915 42.8827C70.7713 42.7258 70.7136 42.5005 70.7817 42.361L69.8553 42.1999C69.8553 42.1999 69.8931 42.3193 69.9149 42.3644C69.9426 42.4309 69.9819 42.4896 70.0214 42.5483C70.1397 42.7244 70.4617 42.7976 70.6637 42.8067C70.805 42.814 71.0264 42.7758 70.9099 42.59L70.8982 42.5979Z" fill="black"/>
<path d="M72.2869 45.6519C72.2257 45.5482 72.1626 45.4543 72.1014 45.3506L72.1407 45.4092C72.1032 45.3407 72.0658 45.2723 72.0282 45.2038C71.9926 45.1255 71.9589 45.0374 71.9018 44.965C71.8683 44.9279 71.8329 44.9006 71.7975 44.8733C71.7522 44.844 71.6972 44.8129 71.6402 44.7915C71.5734 44.7682 71.5165 44.7469 71.4478 44.7334C71.389 44.7219 71.3202 44.7084 71.2613 44.6969L71.1594 44.6973C71.1084 44.6975 71.0535 44.7172 71.0066 44.7488L70.9773 44.794C70.9773 44.794 70.9816 44.8764 71.0151 44.9136C71.023 44.9253 71.0407 44.9389 71.0467 44.9605L71.0072 44.9018C71.0072 44.9018 71.0586 45.0036 71.0784 45.0584C71.108 45.1152 71.1377 45.1719 71.1673 45.2287C71.2443 45.3559 71.3213 45.483 71.4002 45.6004C71.4337 45.6375 71.4691 45.6649 71.5045 45.6922C71.5497 45.7214 71.6048 45.7526 71.6618 45.7739C71.7285 45.7972 71.7854 45.8186 71.8541 45.832C71.913 45.8436 71.9816 45.857 72.0405 45.8686L72.1426 45.8682C72.1936 45.868 72.2484 45.8481 72.2954 45.8166L72.3245 45.7713C72.3245 45.7713 72.3203 45.689 72.2869 45.6519Z" fill="black"/>
<path d="M72.3892 45.7535C72.3892 45.7535 72.3105 45.6871 72.2672 45.648L72.3262 45.7105C72.3262 45.7105 72.2494 45.6343 72.2198 45.5776L72.2593 45.6363C72.2593 45.6363 72.2593 45.6363 72.2514 45.6245C72.2376 45.5912 72.2139 45.5561 72.1883 45.5307C72.1548 45.4935 72.1096 45.4643 72.0625 45.4449C72.0074 45.4137 71.9504 45.3923 71.8935 45.371C71.8267 45.3477 71.7698 45.3263 71.6992 45.3227L71.5814 45.2996C71.5089 45.3058 71.4461 45.3139 71.3913 45.3337L71.3346 45.3634C71.3346 45.3634 71.2917 45.4263 71.3134 45.4713C71.3509 45.5398 71.3982 45.6102 71.4592 45.6629C71.5183 45.7254 71.5892 45.7801 71.6502 45.8328C71.6935 45.8718 71.7406 45.8913 71.7956 45.9224C71.8506 45.9536 71.9175 45.9769 71.9763 45.9884C72.0352 46 72.1039 46.0134 72.1627 46.025C72.2216 46.0365 72.2726 46.0363 72.3256 46.0263L72.4098 46.0122C72.4098 46.0122 72.4882 45.9766 72.5057 45.9393L72.5153 45.8902C72.5153 45.8902 72.4522 45.7964 72.4069 45.7671L72.3892 45.7535Z" fill="black"/>
<path d="M72.1558 46.2682C72.2834 46.2932 72.5738 46.3195 72.5593 46.1332C72.5528 45.9587 72.1248 45.8545 72.0071 45.8314C71.8795 45.8064 71.5892 45.7801 71.6036 45.9664C71.6102 46.1409 72.0381 46.2451 72.1558 46.2682Z" fill="black"/>
<path d="M70.5492 20.8753C73.9836 22.4858 77.6858 23.4049 81.4587 23.808C83.2951 24.0048 85.133 24.0389 86.9722 23.9612C88.9154 23.8732 90.7634 23.4915 92.6503 23.0664C92.8737 23.0185 92.6395 22.8096 92.5589 22.753C92.3682 22.6341 92.1031 22.5822 91.8798 22.6301C90.13 23.0311 88.4076 23.3967 86.6076 23.4821C84.8076 23.5675 83.06 23.541 81.302 23.3595C77.7156 22.993 74.1801 22.1065 70.9127 20.5797C70.5217 20.3909 69.9323 20.5914 70.5492 20.8753Z" fill="black"/>
</svg>
