<svg width="231" height="83" viewBox="0 0 231 83" fill="none" xmlns="http://www.w3.org/2000/svg">
<path d="M2.06695 42.0085C4.56014 44.3622 7.11577 46.7799 10.2429 48.291C11.7954 49.0448 13.5154 49.5668 15.2476 49.6335C16.9798 49.7003 18.7948 49.2368 20.4724 48.6387C21.1142 48.413 20.5352 48.1778 20.1286 48.318C18.4384 48.9096 16.7218 49.3522 14.9254 49.117C13.3247 48.9033 11.7701 48.3076 10.3506 47.5428C7.57431 46.0457 5.26273 43.8337 2.98193 41.6852C2.76954 41.48 1.86712 41.8098 2.0639 41.999L2.06695 42.0085Z" fill="black"/>
<path d="M20.3908 48.3498C20.3908 48.3498 19.8476 48.2921 19.8064 48.2948C19.4872 48.2811 19.1645 48.2896 18.8483 48.2855C18.1557 48.286 17.4726 48.2835 16.7809 48.2208C15.6057 48.1233 14.4676 47.846 13.3792 47.3955C11.2275 46.5074 9.4146 45.1019 7.96742 43.2963C7.79314 43.079 6.8595 43.3767 7.04939 43.6101C8.76103 45.7512 11.0548 47.3812 13.679 48.1711C15.0147 48.5742 16.3982 48.6997 17.7895 48.7177C18.5389 48.7306 19.2757 48.737 20.0216 48.772C20.5461 48.8041 21.0568 48.6936 21.3601 48.2295C21.473 48.057 21.0238 48.0639 20.9605 48.0631C20.7578 48.0858 20.5071 48.1552 20.3972 48.3372L20.3908 48.3498Z" fill="black"/>
<path d="M19.7887 47.9435C17.4726 47.2968 15.3707 46.2354 13.4733 44.7624C11.5759 43.2893 9.99567 41.4946 8.54973 39.5942C8.38497 39.3738 7.44831 39.6621 7.63172 39.908C10.5891 43.7825 14.213 46.9826 18.9964 48.3223C19.2138 48.3789 19.4798 48.357 19.6837 48.2394C19.7634 48.193 20.0253 47.9941 19.7952 47.931L19.7887 47.9435Z" fill="black"/>
<path d="M20.0917 47.7419C18.9061 46.9865 17.7045 46.2467 16.6253 45.3314C15.5461 44.416 14.6921 43.4499 13.8709 42.3892C12.0513 40.0412 10.7542 37.39 9.40946 34.754C9.26458 34.4643 8.33396 34.7716 8.4294 34.9721C9.76193 37.57 11.0404 40.1957 12.8254 42.5338C13.64 43.607 14.5283 44.6147 15.5382 45.5101C16.6578 46.4861 17.9252 47.2679 19.1672 48.0683C19.4181 48.2297 20.2703 47.8739 20.0852 47.7545L20.0917 47.7419Z" fill="black"/>
<path d="M20.3777 47.6507C19.3666 46.3567 18.4227 45.0099 17.7337 43.5083C17.011 41.9334 16.483 40.2125 16.1985 38.4979C16.1546 38.2285 15.1779 38.4245 15.2184 38.716C15.5086 40.4813 16.0674 42.2659 16.8244 43.8823C17.5138 45.3524 18.4547 46.6897 19.4597 47.9645C19.634 48.1819 20.5676 47.884 20.3777 47.6507Z" fill="black"/>
<path d="M20.6521 47.4582C19.8206 44.7529 19.1226 42.0051 18.8112 39.1864C18.4999 36.3677 18.6623 33.3559 19.0383 30.4544C19.074 30.1386 18.1043 30.2905 18.0755 30.5621C17.7064 33.4194 17.5236 36.3013 17.8089 39.1702C18.0943 42.0392 18.8163 44.8949 19.672 47.6763C19.7632 47.9622 20.7246 47.7185 20.6521 47.4582Z" fill="black"/>
<path d="M20.587 47.8463C21.9972 44.6989 23.3697 41.532 24.0463 38.1252C24.723 34.7184 24.8916 31.2323 25.2273 27.7768C25.2458 27.5715 24.28 27.6697 24.2473 27.995C23.9142 31.4917 23.7451 35.0094 23.0299 38.4599C22.3147 41.9105 20.9923 44.8725 19.6146 47.9571C19.5104 48.1897 20.4568 48.1292 20.5774 47.8493L20.587 47.8463Z" fill="black"/>
<path d="M20.5484 48.3834C22.1337 46.6077 23.6034 44.7323 24.8849 42.7281C26.1664 40.7238 27.0744 38.5028 28.105 36.3372C28.2123 36.1141 27.2754 36.1715 27.1421 36.4449C26.144 38.5477 25.2845 40.6903 24.0255 42.6663C22.7664 44.6424 21.2518 46.5741 19.6535 48.375C19.4159 48.6502 20.3592 48.5802 20.5389 48.3865L20.5484 48.3834Z" fill="black"/>
<path d="M20.7582 48.5475C23.8518 47.5186 26.7801 46.0702 29.4513 44.2104C31.8704 42.515 34.1639 40.5239 35.6459 37.9309C35.7593 37.7268 34.8289 37.7716 34.6832 38.0386C33.256 40.5406 31.0332 42.4568 28.6971 44.0836C26.1472 45.8627 23.3652 47.2435 20.4144 48.2267C19.7666 48.4334 20.3485 48.6781 20.7582 48.5475Z" fill="black"/>
<path d="M20.4687 48.9233C23.5023 46.4231 26.5365 43.8913 29.3551 41.1448C31.847 38.7229 34.3838 36.2448 35.4399 32.8429C35.5225 32.5752 34.5662 32.6703 34.4772 32.9506C33.4375 36.3052 30.9295 38.7427 28.4697 41.1333C25.6896 43.836 22.7066 46.3305 19.7145 48.7965C19.3054 49.1264 20.2674 49.0819 20.4656 48.9137L20.4687 48.9233Z" fill="black"/>
<path d="M12.0465 51.148C14.9418 50.7807 17.9012 50.351 20.4357 48.7868C20.6205 48.6753 20.5399 48.5541 20.3696 48.514C20.1617 48.4543 19.8599 48.5611 19.6846 48.6695C17.4497 50.0542 14.7856 50.3897 12.226 50.7233C12.096 50.7438 11.668 50.8173 11.6625 50.9975C11.6505 51.1903 11.9291 51.1749 12.0621 51.164L12.0465 51.148Z" fill="black"/>
<path d="M16.1499 52.7255C16.9846 52.2493 17.8038 51.7571 18.5362 51.1246C19.2687 50.4921 19.9248 49.653 20.5549 48.8642C20.6899 48.6952 20.4503 48.6352 20.3238 48.6335C20.1246 48.6341 19.8044 48.6837 19.6694 48.8528C19.0748 49.5883 18.4894 50.3523 17.7886 50.9852C17.1293 51.5839 16.3643 52.0483 15.5931 52.4937C15.4689 52.5649 15.2901 52.6954 15.4817 52.8022C15.6481 52.8961 16.0096 52.8123 16.1689 52.7194L16.1499 52.7255Z" fill="black"/>
<path d="M20.6536 49.0426C22.4409 49.2492 24.2295 49.361 26.0317 49.1535C26.1837 49.1365 26.5515 49.0716 26.5951 48.8793C26.6387 48.6869 26.2969 48.7015 26.1955 48.7129C24.5549 48.9003 22.9118 48.7841 21.2696 48.6047C21.0422 48.5828 20.7699 48.6172 20.5846 48.7603C20.4408 48.8691 20.4453 49.0146 20.6506 49.0331L20.6536 49.0426Z" fill="black"/>
<path d="M19.4825 49.1223C21.0277 49.952 22.6245 50.7127 24.3629 51.0293C24.5869 51.0733 24.8692 51.0043 25.048 50.8738C25.2012 50.7619 25.1808 50.632 24.982 50.601C23.3033 50.3072 21.7572 49.5408 20.2653 48.7467C20.0768 48.6493 19.7595 48.7401 19.578 48.8294C19.4507 48.891 19.2749 49.0311 19.4664 49.1379L19.4825 49.1223Z" fill="black"/>
<path d="M19.4288 48.3942C19.7482 52.7848 21.1213 56.8918 23.2664 60.721C24.2709 62.5208 25.3931 64.2621 26.7647 65.7979C28.1363 67.3337 29.8046 68.6805 31.5545 69.8227C31.8084 69.9936 32.6575 69.6283 32.4725 69.5088C30.7477 68.3796 29.1419 67.0969 27.7608 65.5642C26.3797 64.0314 25.1642 62.1624 24.1384 60.2958C22.0557 56.5307 20.7295 52.4718 20.4184 48.173C20.4026 47.9261 19.4233 48.081 19.4383 48.3911L19.4288 48.3942Z" fill="black"/>
<path d="M29.9848 67.6993C29.8687 67.6314 29.7911 67.5197 29.6715 67.4739C29.5017 67.4021 29.264 67.4464 29.1051 67.5076C28.9907 67.5441 28.7777 67.633 28.7916 67.7755C28.8056 67.918 28.9521 68.0812 29.0358 68.212C29.1382 68.3683 29.2595 68.5185 29.3713 68.6717C29.6172 68.9817 29.8566 69.3042 30.163 69.5738C30.707 70.0615 31.3942 70.4722 32.1068 70.6332C32.5262 70.7304 33.0264 70.6862 33.3901 70.4442C33.639 70.2704 33.6644 70.0209 33.5317 69.7693C33.3586 69.4571 33.0643 69.2256 32.7792 69.0227C32.4407 68.7843 32.0958 68.5584 31.7444 68.3451C31.3522 68.1028 30.9631 67.8701 30.5644 67.6404C30.3729 67.5335 30.1779 67.4488 29.9864 67.3419C29.8326 67.2545 29.7263 67.152 29.543 67.1369C29.3377 67.1185 28.7426 67.1613 28.745 67.465C28.7369 67.604 28.8595 67.6594 28.9891 67.6706C29.2195 67.702 29.4858 67.6485 29.6741 67.515C29.8179 67.4062 29.8135 67.2607 29.6081 67.2422L29.5795 67.2513C29.5795 67.2513 29.6709 67.2746 29.7181 67.291C29.7121 67.272 29.709 67.2624 29.7125 67.2404L28.9144 67.5684C28.9777 67.5692 29.0713 67.6653 29.1247 67.7008C29.2534 67.7752 29.398 67.834 29.5363 67.9054C29.8409 68.0706 30.1295 68.2515 30.4246 68.4197C30.9832 68.7559 31.5639 69.0955 32.0835 69.507C32.2903 69.6615 32.5247 69.8701 32.6132 70.1148C32.6284 70.1624 32.6436 70.21 32.6462 70.2512C32.6385 70.3586 32.5468 70.3669 32.7533 70.2905C32.6485 70.3239 32.8966 70.2133 32.9248 70.2358C32.9217 70.2263 32.849 70.2285 32.8269 70.225C32.7511 70.2177 32.6817 70.1979 32.6093 70.1685C32.0392 69.9935 31.4936 69.6322 31.0498 69.2279C30.7871 68.9968 30.5695 68.7094 30.3549 68.4315C30.246 68.2878 30.1277 68.147 30.0284 68.0003C29.9352 67.8726 29.7761 67.7029 29.7687 67.5478L28.8791 67.8526C28.8791 67.8526 28.9698 67.9391 29.0105 67.9681C29.0669 68.0131 29.1296 68.0456 29.1925 68.078C29.3809 68.1753 29.6984 68.0846 29.8799 67.9952C30.0072 67.9336 30.1829 67.7936 29.9913 67.6867L29.9848 67.6993Z" fill="black"/>
<path d="M32.6723 69.7075C32.5687 69.6461 32.4682 69.5942 32.3646 69.5328L32.4274 69.5652C32.3615 69.5233 32.2957 69.4813 32.2299 69.4393C32.161 69.3878 32.089 69.3268 32.0041 69.2909C31.9568 69.2745 31.9127 69.2676 31.8685 69.2607C31.8148 69.2569 31.7515 69.2561 31.6913 69.2648C31.6216 69.2765 31.5614 69.2852 31.4947 69.3065C31.4375 69.3247 31.3708 69.346 31.3136 69.3642L31.2245 69.4137C31.1799 69.4384 31.1413 69.4821 31.1154 69.5324L31.1115 69.5861C31.1115 69.5861 31.1549 69.6563 31.2022 69.6727C31.2147 69.6792 31.2368 69.6826 31.2524 69.6986L31.1896 69.6662C31.1896 69.6662 31.2836 69.7307 31.3274 69.7692C31.3807 69.8047 31.434 69.8401 31.4873 69.8756C31.616 69.95 31.7447 70.0244 31.8704 70.0893C31.9176 70.1057 31.9618 70.1126 32.006 70.1195C32.0597 70.1234 32.123 70.1242 32.1832 70.1155C32.2529 70.1037 32.3131 70.0951 32.3797 70.0738C32.4369 70.0556 32.5035 70.0343 32.5607 70.0161L32.65 69.9666C32.6946 69.9418 32.7331 69.8981 32.7591 69.8478L32.7628 69.7941C32.7628 69.7941 32.7195 69.724 32.6723 69.7075Z" fill="black"/>
<path d="M32.8109 69.7473C32.8109 69.7473 32.71 69.727 32.6532 69.7136L32.7351 69.74C32.7351 69.74 32.6311 69.7102 32.5778 69.6747L32.6407 69.7071C32.6407 69.7071 32.6406 69.7071 32.6281 69.7006C32.5999 69.6781 32.5623 69.6587 32.5276 69.6488C32.4804 69.6323 32.4267 69.6285 32.376 69.6341C32.3127 69.6333 32.2525 69.642 32.1923 69.6507C32.1225 69.6625 32.0624 69.6711 31.9987 69.7019L31.8844 69.7384C31.8238 69.7787 31.7727 69.8161 31.7342 69.8598L31.6988 69.9131C31.6988 69.9131 31.6914 69.9889 31.7322 70.0179C31.7981 70.0599 31.8734 70.0988 31.9522 70.1157C32.0341 70.142 32.1226 70.1558 32.2014 70.1726C32.2582 70.186 32.3088 70.1804 32.372 70.1812C32.4352 70.182 32.505 70.1703 32.5622 70.152C32.6194 70.1338 32.686 70.1125 32.7432 70.0943C32.8003 70.0761 32.8449 70.0513 32.8865 70.0171L32.9536 69.9642C32.9536 69.9642 33.0051 69.8953 33.0025 69.8541L32.9873 69.8065C32.9873 69.8065 32.8868 69.7546 32.8331 69.7507L32.8109 69.7473Z" fill="black"/>
<path d="M32.8542 70.3108C32.9781 70.2713 33.2452 70.1546 33.1429 69.9983C33.0531 69.8485 32.6279 69.9631 32.5135 69.9996C32.3897 70.0391 32.1225 70.1558 32.2249 70.3121C32.3146 70.4619 32.7399 70.3473 32.8542 70.3108Z" fill="black"/>
<path d="M19.2207 48.828C23.0063 48.5861 26.6937 47.6093 30.1946 46.1461C31.899 45.4345 33.5262 44.5796 35.1009 43.6259C36.7617 42.6133 38.1976 41.389 39.6468 40.108C39.8195 39.9584 39.5136 39.8881 39.4157 39.8773C39.1914 39.8649 38.9341 39.947 38.7614 40.0966C37.4208 41.2905 36.0872 42.4401 34.5506 43.3816C33.0141 44.3231 31.4695 45.1412 29.8414 45.8285C26.5215 47.2339 22.9959 48.159 19.3971 48.3938C18.9635 48.4167 18.5433 48.8761 19.2207 48.828Z" fill="black"/>
<path d="M58.7975 17.6396C59.8496 20.9028 60.9255 24.2523 62.9389 27.0823C63.9367 28.4905 65.1929 29.7761 66.679 30.6685C68.1651 31.561 69.9791 32.0285 71.7374 32.312C72.4085 32.4231 72.0143 31.9382 71.5904 31.8653C69.8242 31.5702 68.1065 31.1317 66.6452 30.0606C65.3452 29.1028 64.2694 27.8321 63.3934 26.4784C61.6809 23.8296 60.7198 20.7779 59.7551 17.7967C59.6677 17.5147 58.718 17.3693 58.7994 17.6298L58.7975 17.6396Z" fill="black"/>
<path d="M71.805 32.0194C71.805 32.0194 71.3566 31.7074 71.3192 31.6899C71.046 31.5243 70.7591 31.3763 70.4839 31.2205C69.8766 30.8875 69.2792 30.5564 68.703 30.1684C67.7199 29.5172 66.8559 28.7262 66.1188 27.8074C64.6605 25.993 63.7482 23.8883 63.3491 21.609C63.301 21.3346 62.3393 21.1461 62.3934 21.4421C62.8628 24.1428 64.0885 26.6758 66.0082 28.6315C66.9848 29.6279 68.1371 30.4039 69.3478 31.0896C69.9984 31.4616 70.6411 31.822 71.2781 32.2117C71.7224 32.4924 72.2231 32.6415 72.7124 32.3807C72.8944 32.2839 72.4974 32.0736 72.4423 32.0425C72.2538 31.9648 72.0005 31.9049 71.8166 32.0115L71.805 32.0194Z" fill="black"/>
<path d="M71.4728 31.3735C69.7542 29.6916 68.4229 27.7494 67.4691 25.5448C66.5152 23.3402 65.9942 21.0064 65.6418 18.6446C65.6035 18.3721 64.6438 18.1739 64.6861 18.4777C65.4128 23.2974 67.0484 27.8469 70.596 31.324C70.7594 31.4783 71.003 31.5872 71.2384 31.5823C71.3305 31.58 71.6558 31.5317 71.4846 31.3657L71.4728 31.3735Z" fill="black"/>
<path d="M71.8355 31.3426C71.16 30.1097 70.463 28.8828 69.9578 27.561C69.4525 26.2391 69.1692 24.9812 68.9601 23.6562C68.4957 20.7221 68.6352 17.7739 68.7257 14.8161C68.7381 14.4925 67.7745 14.3138 67.7616 14.5355C67.6788 17.454 67.5352 20.3709 67.9741 23.2796C68.1714 24.6124 68.4649 25.9233 68.9189 27.1943C69.4303 28.5887 70.1648 29.8842 70.868 31.1837C71.0103 31.4459 71.9284 31.5443 71.8238 31.3505L71.8355 31.3426Z" fill="black"/>
<path d="M72.13 31.4004C71.8668 29.7795 71.6879 28.1446 71.807 26.4968C71.9317 24.7685 72.2975 23.0059 72.8736 21.3661C72.9648 21.1089 72.0144 20.8105 71.9096 21.0855C71.3141 22.7724 70.9446 24.6056 70.8299 26.3868C70.7264 28.0072 70.9073 29.6323 71.1743 31.2335C71.2224 31.5079 72.1841 31.6963 72.13 31.4004Z" fill="black"/>
<path d="M72.4632 31.3638C73.0369 28.5924 73.7479 25.8479 74.8321 23.2275C75.9163 20.6071 77.5086 18.0455 79.2351 15.6834C79.4184 15.4238 78.4954 15.0901 78.3394 15.3143C76.6402 17.6409 75.0925 20.0788 73.9614 22.7308C72.8303 25.3828 72.0882 28.2332 71.4992 31.0831C71.4415 31.3775 72.4015 31.6268 72.4632 31.3638Z" fill="black"/>
<path d="M72.2193 31.6726C74.9706 29.5929 77.6982 27.478 79.9315 24.8178C82.1647 22.1576 83.9908 19.1833 85.9487 16.3163C86.0638 16.1452 85.17 15.7663 84.9847 16.0357C83.0093 18.94 81.1676 21.9418 78.8795 24.6218C76.5914 27.3018 74.0063 29.2613 71.3137 31.3016C71.1103 31.4553 71.969 31.858 72.2095 31.6707L72.2193 31.6726Z" fill="black"/>
<path d="M71.9269 32.1248C74.1713 31.3316 76.3623 30.3955 78.4505 29.2558C80.5386 28.1161 82.4037 26.6066 84.3497 25.2047C84.5511 25.0607 83.7022 24.66 83.4539 24.8355C81.5666 26.198 79.7818 27.6621 77.7269 28.7879C75.672 29.9138 73.4145 30.8777 71.1466 31.6866C70.8058 31.8135 71.6663 32.2062 71.917 32.1229L71.9269 32.1248Z" fill="black"/>
<path d="M72.0318 32.3696C75.2386 32.9573 78.5025 33.0975 81.7391 32.7535C84.6757 32.4322 87.6444 31.7912 90.1918 30.232C90.3894 30.1077 89.5524 29.6991 89.2962 29.8629C86.8407 31.3688 83.9699 31.9781 81.1392 32.2793C78.0477 32.611 74.9446 32.4818 71.8849 31.923C71.2176 31.7922 71.6098 32.2869 72.0318 32.3696Z" fill="black"/>
<path d="M71.5971 32.5596C75.4597 31.8287 79.338 31.0705 83.1308 30.0202C86.4808 29.0973 89.8974 28.1465 92.4608 25.6734C92.6621 25.4784 91.7781 25.1014 91.5652 25.3042C89.0388 27.7439 85.6672 28.6728 82.3602 29.5839C78.6223 30.6143 74.8069 31.3646 70.9972 32.0854C70.4798 32.1776 71.3443 32.6017 71.599 32.5497L71.5971 32.5596Z" fill="black"/>
<path d="M63.1442 30.4547C65.8587 31.5267 68.6594 32.5748 71.6339 32.424C71.8496 32.4154 71.8372 32.2703 71.7074 32.1532C71.5538 32.0008 71.2379 31.9491 71.032 31.9597C68.4065 32.0973 65.9101 31.1088 63.5059 30.1689C63.3822 30.1243 62.9717 29.9827 62.8801 30.1379C62.7768 30.3011 63.0283 30.4218 63.1502 30.4762L63.1442 30.4547Z" fill="black"/>
<path d="M65.9812 33.8129C66.9421 33.7974 67.8971 33.7604 68.8435 33.5587C69.79 33.3569 70.7691 32.9374 71.7011 32.5494C71.9008 32.4662 71.7197 32.2982 71.6096 32.2359C71.4347 32.1405 71.1302 32.0299 70.9305 32.113C70.0553 32.4714 69.1743 32.8592 68.2554 33.0766C67.3893 33.2839 66.4951 33.3226 65.6048 33.3418C65.4617 33.3443 65.2422 33.3726 65.3586 33.5585C65.4593 33.7208 65.8165 33.8214 66.0008 33.8168L65.9812 33.8129Z" fill="black"/>
<path d="M71.7017 32.7532C73.1688 33.7948 74.6826 34.7539 76.3621 35.4397C76.5035 35.4979 76.8571 35.6182 76.9879 35.4706C77.1188 35.323 76.8121 35.1712 76.7179 35.1323C75.1896 34.5068 73.8055 33.6139 72.4525 32.666C72.2637 32.5373 72.0084 32.4363 71.7772 32.4725C71.5988 32.4987 71.5326 32.6284 71.7037 32.7435L71.7017 32.7532Z" fill="black"/>
<path d="M70.6369 32.2593C71.5918 33.7304 72.6251 35.1659 73.9964 36.2804C74.1715 36.4268 74.4522 36.5022 74.6717 36.4738C74.8599 36.4496 74.9045 36.3259 74.7452 36.203C73.4153 35.1373 72.4292 33.7212 71.5039 32.3069C71.3855 32.1308 71.0637 32.0576 70.8617 32.0486C70.7204 32.0413 70.4989 32.0794 70.6153 32.2652L70.6369 32.2593Z" fill="black"/>
<path d="M70.9404 31.5952C69.1065 35.5972 68.3327 39.858 68.3694 44.247C68.3832 46.3081 68.5285 48.3746 68.9912 50.381C69.454 52.3875 70.2678 54.371 71.2517 56.2146C71.392 56.4867 72.3121 56.5753 72.2074 56.3815C71.2393 54.5614 70.4494 52.6641 69.9768 50.6557C69.5042 48.6473 69.3387 46.424 69.3383 44.2942C69.3256 39.9914 70.1173 35.7953 71.9142 31.8778C72.0192 31.6538 71.0864 31.3181 70.9502 31.5971L70.9404 31.5952Z" fill="black"/>
<path d="M70.8982 53.5979C70.8291 53.4824 70.8149 53.3472 70.7321 53.2494C70.6178 53.1047 70.3881 53.0291 70.2194 53.0063C70.1016 52.9832 69.8721 52.9586 69.8157 53.0902C69.7593 53.2218 69.8092 53.4354 69.8196 53.5903C69.834 53.7766 69.868 53.9666 69.8923 54.1548C69.9585 54.5448 70.0131 54.9427 70.1519 55.3266C70.3938 56.016 70.7985 56.7067 71.3456 57.191C71.6663 57.478 72.1261 57.6802 72.5613 57.6432C72.8632 57.6106 73.0055 57.4042 73.0103 57.1198C73.0089 56.7628 72.8625 56.4182 72.7102 56.1031C72.5284 55.7312 72.3349 55.3671 72.1295 55.011C71.9024 54.6098 71.6734 54.2185 71.4345 53.8252C71.3181 53.6394 71.1881 53.4712 71.0716 53.2854C70.9789 53.1347 70.9351 52.9936 70.7817 52.8923C70.6106 52.7772 70.0684 52.5283 69.9243 52.7956C69.8502 52.9135 69.9311 53.0211 70.0393 53.0932C70.2261 53.2318 70.4852 53.3131 70.7146 53.2867C70.893 53.2605 70.9592 53.1309 70.7881 53.0158L70.7586 53.0101C70.7586 53.0101 70.8275 53.0745 70.861 53.1116C70.8648 53.092 70.8668 53.0822 70.8804 53.0645L70.023 52.9678C70.0781 52.999 70.1139 53.1283 70.1435 53.185C70.2205 53.3122 70.319 53.4334 70.4058 53.5625C70.5932 53.854 70.7592 54.1515 70.9368 54.441C71.2646 55.0046 71.61 55.5818 71.8673 56.1927C71.9742 56.4276 72.0792 56.7233 72.039 56.9804C72.0294 57.0294 72.0198 57.0785 72.0023 57.1158C71.9438 57.2063 71.8594 57.1694 72.0772 57.2019C71.9693 57.1807 72.2399 57.2032 72.2538 57.2365C72.2557 57.2267 72.1909 57.1935 72.1732 57.1799C72.1103 57.137 72.059 57.0862 72.0098 57.0256C71.5943 56.5977 71.2901 56.0184 71.0957 55.4504C70.9767 55.1214 70.9243 54.7647 70.87 54.4177C70.8438 54.2394 70.8079 54.0591 70.7915 53.8827C70.7713 53.7258 70.7135 53.5005 70.7816 53.361L69.8553 53.1999C69.8553 53.1999 69.8931 53.3193 69.9148 53.3644C69.9426 53.4309 69.9819 53.4896 70.0214 53.5483C70.1397 53.7244 70.4617 53.7976 70.6637 53.8067C70.8049 53.814 71.0264 53.7758 70.9099 53.59L70.8982 53.5979Z" fill="black"/>
<path d="M72.2868 56.6519C72.2256 56.5482 72.1625 56.4543 72.1013 56.3506L72.1407 56.4092C72.1032 56.3407 72.0657 56.2723 72.0282 56.2038C71.9926 56.1255 71.9589 56.0374 71.9017 55.965C71.8682 55.9279 71.8328 55.9006 71.7974 55.8733C71.7522 55.844 71.6971 55.8129 71.6402 55.7915C71.5734 55.7682 71.5165 55.7469 71.4478 55.7334C71.3889 55.7219 71.3202 55.7084 71.2613 55.6969L71.1593 55.6973C71.1083 55.6975 71.0535 55.7172 71.0066 55.7488L70.9773 55.794C70.9773 55.794 70.9816 55.8764 71.0151 55.9136C71.023 55.9253 71.0407 55.9389 71.0467 55.9605L71.0072 55.9018C71.0072 55.9018 71.0585 56.0036 71.0784 56.0584C71.108 56.1152 71.1376 56.1719 71.1673 56.2287C71.2443 56.3559 71.3213 56.483 71.4002 56.6004C71.4337 56.6375 71.4691 56.6649 71.5045 56.6922C71.5497 56.7214 71.6048 56.7526 71.6617 56.7739C71.7285 56.7972 71.7854 56.8186 71.8541 56.832C71.913 56.8436 71.9816 56.857 72.0405 56.8686L72.1426 56.8682C72.1936 56.868 72.2484 56.8481 72.2954 56.8166L72.3245 56.7713C72.3245 56.7713 72.3203 56.689 72.2868 56.6519Z" fill="black"/>
<path d="M72.3892 56.7535C72.3892 56.7535 72.3105 56.6871 72.2672 56.648L72.3263 56.7105C72.3263 56.7105 72.2495 56.6343 72.2198 56.5776L72.2593 56.6363C72.2593 56.6363 72.2593 56.6363 72.2514 56.6245C72.2376 56.5912 72.2139 56.5561 72.1883 56.5307C72.1549 56.4935 72.1096 56.4643 72.0625 56.4449C72.0074 56.4137 71.9504 56.3923 71.8935 56.371C71.8267 56.3477 71.7698 56.3263 71.6992 56.3227L71.5814 56.2996C71.5089 56.3058 71.4461 56.3139 71.3913 56.3337L71.3346 56.3634C71.3346 56.3634 71.2917 56.4263 71.3134 56.4713C71.351 56.5398 71.3982 56.6102 71.4592 56.6629C71.5183 56.7254 71.5892 56.7801 71.6502 56.8328C71.6935 56.8718 71.7406 56.8913 71.7956 56.9224C71.8506 56.9536 71.9175 56.9769 71.9764 56.9884C72.0352 57 72.1039 57.0134 72.1628 57.025C72.2216 57.0365 72.2727 57.0363 72.3256 57.0263L72.4098 57.0122C72.4098 57.0122 72.4882 56.9766 72.5057 56.9393L72.5153 56.8902C72.5153 56.8902 72.4522 56.7964 72.407 56.7671L72.3892 56.7535Z" fill="black"/>
<path d="M72.1559 57.2682C72.2834 57.2932 72.5738 57.3195 72.5593 57.1332C72.5528 56.9587 72.1249 56.8545 72.0071 56.8314C71.8795 56.8064 71.5892 56.7801 71.6036 56.9664C71.6102 57.1409 72.0381 57.2451 72.1559 57.2682Z" fill="black"/>
<path d="M70.5492 31.8753C73.9836 33.4858 77.6858 34.4049 81.4587 34.808C83.2952 35.0048 85.133 35.0389 86.9723 34.9612C88.9154 34.8732 90.7634 34.4915 92.6503 34.0664C92.8737 34.0185 92.6395 33.8096 92.5589 33.753C92.3682 33.6341 92.1032 33.5822 91.8798 33.6301C90.13 34.0311 88.4077 34.3967 86.6076 34.4821C84.8076 34.5675 83.06 34.541 81.3021 34.3595C77.7156 33.993 74.1801 33.1065 70.9128 31.5797C70.5218 31.3909 69.9323 31.5914 70.5492 31.8753Z" fill="black"/>
<path d="M116.636 49.6905C119.419 51.6938 122.271 53.7524 125.571 54.8367C127.21 55.3787 128.983 55.6686 130.709 55.5057C132.435 55.3428 134.173 54.6434 135.757 53.8287C136.363 53.5201 135.758 53.3635 135.373 53.5563C133.776 54.3662 132.133 55.0319 130.322 55.0363C128.707 55.0362 127.087 54.6512 125.579 54.0809C122.629 52.9641 120.045 51.0771 117.5 49.2491C117.263 49.0738 116.412 49.52 116.632 49.6815L116.636 49.6905Z" fill="black"/>
<path d="M135.638 53.5531C135.638 53.5531 135.091 53.5678 135.051 53.5759C134.733 53.6046 134.414 53.6557 134.1 53.6934C133.414 53.7855 132.736 53.8733 132.042 53.9026C130.864 53.9614 129.7 53.8371 128.561 53.5344C126.311 52.9386 124.328 51.7852 122.655 50.1868C122.454 49.9944 121.567 50.413 121.787 50.6192C123.766 52.5152 126.255 53.8276 128.961 54.2635C130.338 54.4865 131.726 54.4279 133.108 54.2618C133.852 54.1755 134.583 54.0844 135.327 54.0205C135.852 53.9829 136.343 53.8059 136.582 53.3058C136.672 53.1199 136.227 53.1861 136.164 53.1936C135.966 53.2429 135.727 53.3449 135.642 53.5398L135.638 53.5531Z" fill="black"/>
<path d="M134.987 53.2301C132.606 52.8953 130.382 52.1212 128.306 50.9119C126.231 49.7027 124.427 48.1328 122.743 46.4402C122.55 46.2436 121.66 46.6532 121.874 46.8727C125.318 50.3221 129.333 53.0149 134.252 53.7103C134.475 53.7376 134.735 53.6807 134.922 53.5372C134.995 53.4807 135.228 53.2489 134.992 53.2168L134.987 53.2301Z" fill="black"/>
<path d="M135.261 52.9901C133.986 52.3981 132.697 51.8237 131.506 51.0591C130.315 50.2946 129.341 49.4498 128.387 48.5071C126.273 46.4202 124.636 43.9638 122.955 41.5288C122.773 41.2608 121.891 41.6885 122.012 41.8746C123.677 44.2735 125.291 46.7071 127.369 48.7887C128.319 49.7447 129.333 50.626 130.452 51.3801C131.691 52.1994 133.051 52.8068 134.387 53.4359C134.658 53.5627 135.455 53.0973 135.256 53.0034L135.261 52.9901Z" fill="black"/>
<path d="M135.532 52.8619C134.359 51.713 133.245 50.5028 132.364 49.1055C131.439 47.64 130.688 46.004 130.179 44.3421C130.1 44.0809 129.158 44.4043 129.237 44.6879C129.758 46.3993 130.548 48.0944 131.512 49.5965C132.389 50.9625 133.499 52.1636 134.664 53.2944C134.865 53.4868 135.751 53.0681 135.532 52.8619Z" fill="black"/>
<path d="M135.779 52.6349C134.597 50.0633 133.541 47.4319 132.86 44.6791C132.179 41.9263 131.942 38.9195 131.931 35.9938C131.924 35.676 130.983 35.9548 130.99 36.2278C131.002 39.1088 131.202 41.9896 131.865 44.7956C132.527 47.6017 133.62 50.3368 134.836 52.9807C134.964 53.2519 135.885 52.8832 135.779 52.6349Z" fill="black"/>
<path d="M135.765 53.0282C136.747 49.7219 137.689 46.4013 137.909 42.935C138.129 39.4686 137.835 35.9909 137.711 32.5213C137.702 32.3154 136.758 32.5404 136.769 32.8672C136.901 36.3772 137.198 39.8864 136.946 43.4012C136.693 46.916 135.774 50.0268 134.816 53.2665C134.744 53.5109 135.674 53.3258 135.756 53.0324L135.765 53.0282Z" fill="black"/>
<path d="M135.798 53.5656C137.135 51.5958 138.344 49.5426 139.349 47.3865C140.354 45.2304 140.96 42.9089 141.696 40.626C141.772 40.3906 140.851 40.5714 140.755 40.8601C140.044 43.0764 139.475 45.3138 138.489 47.439C137.502 49.5642 136.256 51.6792 134.91 53.6756C134.711 53.9798 135.637 53.7857 135.789 53.5699L135.798 53.5656Z" fill="black"/>
<path d="M136.028 53.7005C138.958 52.2716 141.669 50.4487 144.071 48.2521C146.245 46.2517 148.255 43.9748 149.381 41.2085C149.466 40.9912 148.55 41.1587 148.441 41.4426C147.357 44.1114 145.407 46.3046 143.307 48.2261C141.015 50.3268 138.44 52.0632 135.645 53.428C135.03 53.7185 135.639 53.8842 136.028 53.7005Z" fill="black"/>
<path d="M135.791 54.1113C138.467 51.2319 141.14 48.3211 143.57 45.226C145.72 42.496 147.907 39.7041 148.504 36.1925C148.55 35.9162 147.615 36.1369 147.564 36.4265C146.977 39.8892 144.813 42.6368 142.691 45.3317C140.293 48.3783 137.666 51.2454 135.026 54.0853C134.664 54.4664 135.612 54.2952 135.786 54.1022L135.791 54.1113Z" fill="black"/>
<path d="M127.736 57.4301C130.558 56.6832 133.434 55.866 135.74 53.9803C135.908 53.8454 135.812 53.736 135.638 53.7187C135.424 53.6871 135.139 53.8328 134.98 53.9634C132.948 55.6315 130.351 56.3163 127.858 56.9855C127.732 57.0229 127.318 57.1524 127.336 57.3317C127.35 57.5244 127.624 57.4723 127.754 57.4439L127.736 57.4301Z" fill="black"/>
<path d="M132.012 58.4513C132.777 57.8688 133.524 57.2726 134.166 56.5488C134.809 55.825 135.348 54.9066 135.868 54.0414C135.98 53.856 135.734 53.8282 135.609 53.8433C135.411 53.8702 135.1 53.9617 134.989 54.1471C134.497 54.9548 134.018 55.7895 133.407 56.5096C132.832 57.1901 132.135 57.7517 131.43 58.2951C131.316 58.3821 131.156 58.5351 131.36 58.6156C131.538 58.6867 131.885 58.5558 132.031 58.4427L132.012 58.4513Z" fill="black"/>
<path d="M135.99 54.2051C137.789 54.1736 139.576 54.0479 141.335 53.6039C141.484 53.567 141.84 53.454 141.857 53.2576C141.875 53.0612 141.538 53.1208 141.439 53.1455C139.838 53.5482 138.194 53.6503 136.542 53.6896C136.314 53.698 136.049 53.7681 135.884 53.9344C135.756 54.0613 135.779 54.205 135.985 54.1961L135.99 54.2051Z" fill="black"/>
<path d="M134.839 54.439C136.481 55.057 138.164 55.5999 139.929 55.6839C140.157 55.6979 140.428 55.5921 140.588 55.4391C140.725 55.308 140.687 55.1819 140.486 55.1774C138.783 55.1083 137.149 54.553 135.566 53.9631C135.366 53.8916 135.063 54.0235 134.895 54.136C134.777 54.2139 134.622 54.376 134.826 54.4566L134.839 54.439Z" fill="black"/>
<path d="M134.69 53.7244C135.587 58.0342 137.491 61.9235 140.124 65.4354C141.357 67.0867 142.7 68.6643 144.263 70.0052C145.825 71.3462 147.657 72.4605 149.543 73.3613C149.817 73.4971 150.61 73.0227 150.411 72.9288C148.552 72.0376 146.791 70.9785 145.219 69.6418C143.647 68.3051 142.195 66.6133 140.932 64.8987C138.37 61.4421 136.518 57.5942 135.641 53.3743C135.593 53.1317 134.643 53.4147 134.699 53.7201L134.69 53.7244Z" fill="black"/>
<path d="M147.706 71.4641C147.582 71.4122 147.49 71.3117 147.366 71.2821C147.188 71.2334 146.958 71.3088 146.809 71.3904C146.7 71.4417 146.501 71.558 146.533 71.6974C146.566 71.8368 146.733 71.9793 146.833 72.0978C146.955 72.2392 147.095 72.372 147.226 72.5092C147.511 72.7839 147.791 73.0719 148.13 73.2986C148.734 73.7101 149.47 74.0263 150.197 74.0917C150.626 74.1325 151.116 74.0226 151.444 73.7347C151.668 73.5294 151.66 73.2788 151.495 73.047C151.283 72.7604 150.96 72.5698 150.651 72.4064C150.284 72.2148 149.912 72.0365 149.535 71.8716C149.115 71.6833 148.698 71.5041 148.273 71.3291C148.069 71.2485 147.864 71.1903 147.66 71.1097C147.496 71.0434 147.377 70.9558 147.194 70.9651C146.988 70.974 146.403 71.0952 146.446 71.3958C146.456 71.5347 146.585 71.5734 146.715 71.5673C146.948 71.568 147.205 71.4798 147.374 71.3225C147.502 71.1957 147.478 71.052 147.272 71.0608L147.245 71.0737C147.245 71.0737 147.339 71.0847 147.388 71.0947C147.379 71.0766 147.375 71.0676 147.375 71.0452L146.628 71.4759C146.69 71.4684 146.796 71.5512 146.853 71.5793C146.991 71.6361 147.142 71.6753 147.289 71.7277C147.612 71.8512 147.922 71.9923 148.237 72.1201C148.835 72.3794 149.456 72.6392 150.025 72.9784C150.251 73.1042 150.511 73.28 150.631 73.5108C150.652 73.556 150.673 73.6013 150.681 73.6417C150.688 73.7492 150.598 73.7695 150.793 73.6665C150.693 73.7135 150.925 73.5711 150.955 73.5896C150.951 73.5806 150.879 73.5924 150.857 73.5919C150.781 73.5946 150.709 73.5841 150.634 73.5646C150.046 73.4665 149.457 73.1805 148.964 72.8385C148.673 72.6442 148.419 72.3881 148.17 72.141C148.043 72.0129 147.907 71.8891 147.789 71.7567C147.68 71.6424 147.5 71.4953 147.472 71.3426L146.63 71.7623C146.63 71.7623 146.732 71.836 146.776 71.8594C146.838 71.8965 146.904 71.9205 146.971 71.9443C147.17 72.0159 147.473 71.8839 147.641 71.7713C147.759 71.6934 147.915 71.5314 147.711 71.4508L147.706 71.4641Z" fill="black"/>
<path d="M150.635 73.0994C150.525 73.0522 150.418 73.014 150.307 72.9668L150.374 72.9907C150.303 72.9578 150.232 72.9248 150.161 72.892C150.086 72.85 150.007 72.7991 149.918 72.7748C149.869 72.7647 149.824 72.7637 149.779 72.7627C149.726 72.766 149.663 72.7736 149.604 72.7902C149.537 72.811 149.478 72.8276 149.415 72.8575C149.361 72.8831 149.297 72.9131 149.243 72.9387L149.161 72.9995C149.12 73.0299 149.088 73.0784 149.069 73.1316L149.072 73.1854C149.072 73.1854 149.125 73.2492 149.173 73.2592C149.187 73.264 149.209 73.2644 149.227 73.2782L149.16 73.2544C149.16 73.2544 149.262 73.3059 149.31 73.3383C149.368 73.3664 149.425 73.3945 149.483 73.4226C149.62 73.4794 149.758 73.5361 149.891 73.5838C149.94 73.5938 149.985 73.5948 150.029 73.5958C150.083 73.5925 150.146 73.585 150.204 73.5684C150.272 73.5475 150.33 73.531 150.394 73.5011C150.448 73.4754 150.511 73.4455 150.566 73.4199L150.647 73.359C150.688 73.3286 150.721 73.2801 150.74 73.2269L150.737 73.1732C150.737 73.1732 150.684 73.1094 150.635 73.0994Z" fill="black"/>
<path d="M150.778 73.1204C150.778 73.1204 150.675 73.1136 150.617 73.1079L150.702 73.1232C150.702 73.1232 150.595 73.1074 150.537 73.0793L150.604 73.1031C150.604 73.1031 150.604 73.1031 150.591 73.0983C150.56 73.0797 150.52 73.0655 150.484 73.0602C150.435 73.0502 150.381 73.0534 150.332 73.0658C150.269 73.0733 150.211 73.0899 150.152 73.1065C150.084 73.1273 150.026 73.1439 149.967 73.1829L149.858 73.2341C149.804 73.2821 149.758 73.3259 149.726 73.3743L149.698 73.4319C149.698 73.4319 149.7 73.508 149.745 73.5313C149.815 73.5642 149.895 73.5928 149.976 73.5991C150.06 73.6144 150.15 73.6163 150.23 73.6226C150.288 73.6284 150.338 73.6161 150.4 73.6085C150.463 73.601 150.531 73.5801 150.585 73.5545C150.639 73.5289 150.702 73.499 150.757 73.4733C150.811 73.4477 150.852 73.4173 150.889 73.3778L150.948 73.3166C150.948 73.3166 150.99 73.2414 150.982 73.201L150.961 73.1558C150.961 73.1558 150.854 73.1176 150.8 73.1209L150.778 73.1204Z" fill="black"/>
<path d="M150.895 73.6733C151.013 73.6177 151.262 73.4667 151.14 73.3253C151.031 73.1887 150.625 73.3586 150.517 73.4098C150.399 73.4654 150.15 73.6164 150.272 73.7578C150.381 73.8944 150.787 73.7245 150.895 73.6733Z" fill="black"/>
<path d="M134.541 54.1819C138.261 53.4416 141.787 51.9857 145.064 50.0725C146.659 49.1417 148.159 48.0792 149.594 46.9257C151.106 45.7023 152.368 44.2989 153.635 42.8375C153.786 42.6664 153.474 42.6371 153.375 42.6394C153.151 42.6568 152.907 42.7722 152.755 42.9433C151.585 44.3039 150.415 45.6198 149.016 46.7562C147.618 47.8926 146.195 48.9078 144.672 49.8043C141.567 51.6364 138.195 53.0196 134.658 53.7282C134.232 53.8082 133.876 54.3192 134.541 54.1819Z" fill="black"/>
<path d="M196.046 5.7566C195.878 9.18112 195.702 12.6947 196.586 16.0534C197.022 17.7232 197.744 19.3696 198.819 20.7294C199.894 22.0892 201.426 23.1672 202.971 24.0533C203.56 24.3943 203.362 23.8015 202.991 23.5836C201.443 22.6837 199.991 21.6668 199.002 20.1488C198.124 18.7935 197.566 17.2248 197.225 15.649C196.558 12.566 196.737 9.37156 196.887 6.24179C196.905 5.94704 196.067 5.4756 196.052 5.74809L196.046 5.7566Z" fill="black"/>
<path d="M203.137 23.8036C203.137 23.8036 202.828 23.3533 202.799 23.3237C202.602 23.0722 202.386 22.8325 202.184 22.5896C201.733 22.0635 201.291 21.5428 200.889 20.9763C200.199 20.0199 199.67 18.9748 199.305 17.8548C198.582 15.6424 198.471 13.3511 198.903 11.0777C198.955 10.804 198.122 10.288 198.068 10.584C197.553 13.2764 197.805 16.0791 198.911 18.5867C199.472 19.8638 200.276 20.9968 201.167 22.0658C201.644 22.6437 202.118 23.2078 202.577 23.7974C202.893 24.2169 203.309 24.5332 203.859 24.462C204.063 24.4357 203.766 24.0988 203.726 24.0502C203.577 23.9109 203.361 23.7655 203.151 23.8003L203.137 23.8036Z" fill="black"/>
<path d="M203.055 23.0819C202.041 20.9015 201.481 18.6142 201.367 16.2149C201.254 13.8155 201.59 11.448 202.095 9.11394C202.155 8.84551 201.327 8.32109 201.26 8.62029C200.237 13.3861 200.161 18.2201 202.252 22.726C202.35 22.928 202.54 23.1159 202.762 23.1945C202.849 23.2249 203.17 23.2946 203.069 23.0787L203.055 23.0819Z" fill="black"/>
<path d="M203.405 23.1812C203.208 21.7891 202.99 20.3951 202.984 18.98C202.978 17.5649 203.157 16.2879 203.429 14.9745C204.031 12.0655 205.203 9.35653 206.332 6.62128C206.458 6.32289 205.62 5.81542 205.529 6.01826C204.421 8.71951 203.257 11.3977 202.64 14.2739C202.354 15.5906 202.165 16.9206 202.141 18.2701C202.127 19.7553 202.357 21.2266 202.556 22.6907C202.596 22.9863 203.421 23.4026 203.391 23.1844L203.405 23.1812Z" fill="black"/>
<path d="M203.66 23.3392C203.986 21.7298 204.396 20.137 205.09 18.6374C205.817 17.0645 206.781 15.5448 207.9 14.2141C208.076 14.0056 207.292 13.3908 207.097 13.6111C205.944 14.979 204.951 16.5636 204.214 18.1895C203.545 19.6689 203.141 21.2532 202.825 22.8455C202.773 23.1192 203.606 23.6352 203.66 23.3392Z" fill="black"/>
<path d="M203.985 23.4226C205.5 21.0324 207.135 18.7159 209.074 16.6472C211.014 14.5785 213.409 12.7443 215.858 11.1441C216.121 10.966 215.375 10.3278 215.15 10.4824C212.739 12.0591 210.43 13.7933 208.435 15.875C206.44 17.9566 204.74 20.3613 203.182 22.8196C203.024 23.0747 203.834 23.6469 203.985 23.4226Z" fill="black"/>
<path d="M203.648 23.6254C206.956 22.6513 210.255 21.6359 213.284 19.9359C216.312 18.2358 219.071 16.098 221.916 14.1072C222.084 13.9877 221.381 13.3176 221.113 13.5042C218.239 15.5238 215.456 17.6817 212.369 19.381C209.281 21.0803 206.171 22.0005 202.931 22.9584C202.687 23.0304 203.348 23.7104 203.639 23.6201L203.648 23.6254Z" fill="black"/>
<path d="M203.214 23.9452C205.594 23.9958 207.975 23.8937 210.331 23.5649C212.687 23.2361 214.965 22.4825 217.28 21.8581C217.52 21.7946 216.867 21.1199 216.573 21.1964C214.326 21.8046 212.139 22.544 209.819 22.8716C207.499 23.1992 205.047 23.3038 202.639 23.2597C202.275 23.258 202.942 23.9294 203.206 23.9399L203.214 23.9452Z" fill="black"/>
<path d="M203.226 24.2112C206.019 25.8936 209.023 27.1774 212.172 27.9986C215.033 28.7351 218.037 29.1838 220.971 28.6247C221.2 28.5782 220.561 27.9003 220.263 27.963C217.434 28.5048 214.533 28.061 211.778 27.3431C208.769 26.5616 205.911 25.3449 203.246 23.7416C202.668 23.3835 202.86 23.9849 203.226 24.2112Z" fill="black"/>
<path d="M202.752 24.2355C206.624 24.9158 210.52 25.576 214.44 25.9329C217.9 26.2525 221.432 26.5696 224.704 25.1611C224.961 25.0498 224.267 24.3849 223.996 24.4994C220.771 25.8897 217.288 25.5681 213.873 25.2526C210.012 24.8965 206.177 24.251 202.358 23.5799C201.842 23.4835 202.501 24.1856 202.757 24.2269L202.752 24.2355Z" fill="black"/>
<path d="M195.587 19.281C197.748 21.2426 199.998 23.2123 202.834 24.1217C203.039 24.1897 203.079 24.0497 202.999 23.8942C202.909 23.6974 202.632 23.5375 202.435 23.4747C199.93 22.6763 197.944 20.8698 196.027 19.1414C195.927 19.056 195.593 18.7785 195.452 18.8914C195.298 19.0076 195.491 19.2093 195.585 19.3033L195.587 19.281Z" fill="black"/>
<path d="M197.056 23.4248C197.96 23.7497 198.867 24.0523 199.823 24.1978C200.78 24.3433 201.844 24.2965 202.853 24.2627C203.069 24.2554 202.959 24.0343 202.878 23.9371C202.748 23.786 202.503 23.575 202.286 23.5823C201.341 23.6085 200.38 23.6602 199.443 23.539C198.56 23.4271 197.71 23.1476 196.87 22.8511C196.735 22.8029 196.52 22.7518 196.563 22.9668C196.6 23.1543 196.898 23.3746 197.073 23.4353L197.056 23.4248Z" fill="black"/>
<path d="M202.782 24.4536C203.786 25.9462 204.864 27.378 206.193 28.6127C206.305 28.7172 206.593 28.9546 206.768 28.8627C206.942 28.7708 206.709 28.5205 206.634 28.4509C205.426 27.3259 204.446 26.0017 203.515 24.6371C203.384 24.45 203.181 24.2654 202.951 24.2176C202.775 24.1791 202.668 24.2771 202.787 24.4451L202.782 24.4536Z" fill="black"/>
<path d="M201.96 23.6154C202.334 25.3289 202.794 27.0369 203.683 28.5638C203.795 28.7626 204.031 28.9323 204.246 28.9833C204.431 29.0271 204.516 28.9271 204.411 28.7559C203.543 27.2892 203.12 25.6161 202.754 23.9661C202.706 23.7596 202.43 23.5774 202.245 23.4976C202.115 23.4409 201.894 23.3984 201.938 23.6134L201.96 23.6154Z" fill="black"/>
<path d="M202.478 23.1013C199.349 26.1978 197.121 29.9108 195.605 34.0299C194.89 35.9631 194.296 37.9477 194.021 39.9883C193.745 42.0289 193.806 44.1721 194.075 46.2443C194.11 46.5484 194.94 46.9562 194.91 46.738C194.647 44.6933 194.579 42.6392 194.846 40.5934C195.113 38.5475 195.743 36.409 196.495 34.4163C198.002 30.3862 200.225 26.7401 203.29 23.7096C203.467 23.5372 202.713 22.8937 202.487 23.1066L202.478 23.1013Z" fill="black"/>
<path d="M194.669 43.6713C194.645 43.5389 194.679 43.4074 194.636 43.2867C194.58 43.111 194.392 42.9591 194.242 42.8781C194.14 42.815 193.934 42.7108 193.835 42.8141C193.736 42.9173 193.707 43.1348 193.662 43.2834C193.61 43.4627 193.575 43.6525 193.531 43.8372C193.455 44.2254 193.366 44.617 193.36 45.0251C193.343 45.7555 193.477 46.5447 193.818 47.1909C194.017 47.5727 194.376 47.9242 194.796 48.0433C195.09 48.1195 195.296 47.9766 195.401 47.7122C195.526 47.3778 195.51 47.0037 195.479 46.6551C195.44 46.2429 195.388 45.834 195.322 45.4283C195.251 44.9728 195.175 44.5258 195.09 44.0735C195.047 43.8585 194.985 43.6552 194.941 43.4402C194.908 43.2665 194.916 43.1191 194.809 42.9701C194.689 42.802 194.27 42.3776 194.041 42.5768C193.93 42.661 193.968 42.7902 194.043 42.8959C194.169 43.0915 194.383 43.2591 194.607 43.3154C194.783 43.3539 194.891 43.256 194.771 43.0879L194.746 43.0721C194.746 43.0721 194.787 43.1567 194.806 43.2033C194.816 43.1863 194.821 43.1778 194.84 43.166L194.072 42.7728C194.113 42.8214 194.101 42.955 194.108 43.0186C194.135 43.1648 194.185 43.3129 194.22 43.4644C194.293 43.8033 194.343 44.1402 194.407 44.4738C194.515 45.1168 194.634 45.7788 194.659 46.4412C194.676 46.6987 194.67 47.0125 194.541 47.2388C194.515 47.2813 194.489 47.3238 194.459 47.3525C194.372 47.4165 194.307 47.3522 194.499 47.4595C194.405 47.4016 194.651 47.5182 194.652 47.5542C194.657 47.5457 194.608 47.4919 194.596 47.4728C194.553 47.4105 194.523 47.3448 194.498 47.2707C194.26 46.7237 194.18 46.0743 194.199 45.4742C194.204 45.1244 194.281 44.7722 194.353 44.4284C194.391 44.2523 194.421 44.071 194.468 43.9001C194.505 43.7462 194.53 43.5151 194.643 43.4086L193.833 42.9307C193.833 42.9307 193.827 43.0558 193.831 43.1056C193.833 43.1777 193.85 43.2465 193.866 43.3153C193.914 43.5218 194.19 43.7041 194.375 43.7839C194.505 43.8406 194.726 43.8831 194.682 43.6681L194.669 43.6713Z" fill="black"/>
<path d="M194.889 47.019C194.869 46.9003 194.843 46.7902 194.822 46.6716L194.838 46.7403C194.827 46.663 194.816 46.5857 194.806 46.5084C194.8 46.4226 194.799 46.3282 194.771 46.2404C194.753 46.1938 194.73 46.1557 194.706 46.1177C194.674 46.0743 194.634 46.0257 194.588 45.9856C194.534 45.9403 194.488 45.9002 194.429 45.8634C194.378 45.8318 194.318 45.7949 194.267 45.7633L194.171 45.7277C194.124 45.7099 194.065 45.709 194.01 45.7219L193.967 45.7539C193.967 45.7539 193.942 45.8325 193.96 45.8791C193.963 45.8928 193.975 45.9119 193.973 45.9341L193.957 45.8653C193.957 45.8653 193.969 45.9787 193.968 46.037C193.976 46.1005 193.984 46.1641 193.991 46.2276C194.018 46.3738 194.046 46.52 194.078 46.6577C194.096 46.7042 194.12 46.7423 194.143 46.7804C194.175 46.8237 194.216 46.8723 194.261 46.9124C194.316 46.9578 194.361 46.9978 194.421 47.0347C194.472 47.0663 194.531 47.1031 194.582 47.1347L194.678 47.1704C194.726 47.1882 194.784 47.189 194.839 47.1761L194.882 47.144C194.882 47.144 194.907 47.0655 194.889 47.019Z" fill="black"/>
<path d="M194.949 47.1502C194.949 47.1502 194.899 47.0603 194.872 47.0085L194.905 47.0878C194.905 47.0878 194.86 46.9894 194.853 46.9258L194.869 46.9947C194.869 46.9947 194.869 46.9947 194.866 46.9809C194.865 46.9449 194.855 46.9036 194.84 46.8708C194.822 46.8243 194.79 46.7809 194.752 46.7461C194.712 46.6975 194.666 46.6574 194.62 46.6173C194.566 46.5719 194.52 46.5318 194.456 46.5035L194.354 46.4403C194.284 46.4205 194.222 46.4058 194.164 46.405L194.1 46.4128C194.1 46.4128 194.038 46.4565 194.042 46.5063C194.053 46.5836 194.073 46.6662 194.111 46.737C194.144 46.8164 194.191 46.8926 194.23 46.9634C194.256 47.0153 194.294 47.05 194.334 47.0986C194.375 47.1472 194.429 47.1926 194.48 47.2242C194.531 47.2558 194.59 47.2926 194.641 47.3242C194.692 47.3558 194.74 47.3736 194.793 47.383L194.877 47.3996C194.877 47.3996 194.963 47.3939 194.992 47.3652L195.019 47.3227C195.019 47.3227 194.993 47.2126 194.961 47.1692L194.949 47.1502Z" fill="black"/>
<path d="M194.549 47.5493C194.66 47.6178 194.922 47.7449 194.974 47.5656C195.03 47.4 194.666 47.1513 194.564 47.0882C194.454 47.0197 194.191 46.8926 194.139 47.0719C194.083 47.2375 194.447 47.4862 194.549 47.5493Z" fill="black"/>
<path d="M202.013 23.2252C204.658 25.9448 207.797 28.1122 211.184 29.8217C212.833 30.6544 214.54 31.3353 216.289 31.9121C218.138 32.5161 220.001 32.8115 221.917 33.0802C222.143 33.1143 221.997 32.8361 221.942 32.7547C221.805 32.5761 221.576 32.434 221.35 32.3999C219.571 32.1571 217.831 31.8909 216.117 31.3351C214.402 30.7794 212.777 30.1374 211.196 29.3468C207.97 27.7373 204.976 25.6593 202.458 23.077C202.159 22.7624 201.537 22.7417 202.013 23.2252Z" fill="black"/>
</svg>
