<svg width="151" height="119" viewBox="0 0 151 119" fill="none" xmlns="http://www.w3.org/2000/svg">
<path fill-rule="evenodd" clip-rule="evenodd" d="M103.233 69.7093C103.291 64.9669 104.612 55.7019 111.554 57.9192C115.971 59.3307 120.143 64.4513 119.623 69.2544C118.97 75.274 112.2 75.9106 107.477 74.999C106.117 74.737 104.773 74.3622 103.445 73.9099C103.295 72.5152 103.216 71.1133 103.233 69.7093M74.4068 55.5823C81.0096 64.0209 90.1235 71.5975 100.258 75.7244C100.649 78.1613 101.203 80.4402 101.776 82.3344C105.102 93.3378 112.493 104.516 121.54 111.665C122.529 112.446 123.802 111.606 123.981 110.586C123.948 111.163 123.907 111.741 123.86 112.318C122.36 112.133 120.937 111.718 119.519 111.044C118.652 110.631 117.852 109.945 116.969 109.606C116.443 109.404 116.19 109.716 115.647 109.418C115.474 109.323 115.221 109.468 115.323 109.682C115.602 110.267 115.41 110.78 115.714 111.353C116.192 112.257 117.677 113.237 118.505 113.749C120.567 115.023 122.902 115.695 125.299 115.936C126.301 116.036 127.049 115.281 127.215 114.349C127.623 112.064 127.706 109.721 127.637 107.405C127.577 105.398 127.639 103.115 126.722 101.296C126.004 99.8696 123.934 100.209 123.708 101.791C123.431 103.722 123.99 105.752 124.043 107.706C124.066 108.543 124.041 109.374 123.999 110.204C123.97 109.94 123.862 109.676 123.648 109.435C116.729 101.657 109.945 94.4509 106.094 84.5542C105.147 82.1238 104.406 79.6015 103.913 77.0337C104.141 77.1056 104.368 77.1881 104.598 77.2573C112.164 79.516 123.677 77.9535 122.84 67.5772C122.246 60.2121 112.549 50.3036 105.02 55.7572C100.21 59.2415 99.2972 66.06 99.8581 72.4924C96.7691 71.1125 93.7952 69.4103 90.9757 67.7547C85.0975 64.3043 79.6854 59.9933 74.7445 55.3102C74.5484 55.1247 74.229 55.3555 74.4068 55.5823" fill="black"/>
<g filter="url(#filter0_d_120_743)">
<rect x="4" y="12.8081" width="118" height="37" transform="rotate(-6.23133 4 12.8081)" fill="#F6B8E2"/>
<path d="M34.0427 36.5782C33.2739 36.6622 32.5552 36.5461 31.8867 36.2301C31.2198 35.9283 30.6299 35.474 30.117 34.8672C29.6184 34.2589 29.1998 33.5266 28.8614 32.6702C28.5372 31.8123 28.3191 30.8708 28.2072 29.8457C28.047 28.3791 28.0749 27.0505 28.2907 25.8599C28.5065 24.6693 28.8485 23.645 29.3167 22.787C29.7992 21.9275 30.3731 21.2453 31.0383 20.7404C31.7178 20.234 32.4349 19.9396 33.1895 19.8572C33.9015 19.7794 34.5135 19.8423 35.0255 20.0457C35.5376 20.2492 35.9578 20.5347 36.2861 20.9022C36.6287 21.2683 36.8762 21.6879 37.0287 22.1611C37.1939 22.6185 37.2785 23.0631 37.2824 23.495C37.3014 24.3286 37.0897 25.0288 36.6473 25.5958C36.2192 26.1613 35.6848 26.479 35.044 26.5489C34.8289 26.558 34.6043 26.5465 34.3703 26.5144C34.1647 26.4792 33.949 26.4164 33.7229 26.3258C33.4969 26.2352 33.2797 26.0932 33.0713 25.8998C33.674 25.8773 34.1235 25.7057 34.4199 25.3852C34.7163 25.0647 34.9233 24.7179 35.0411 24.3448C35.1669 23.9133 35.2137 23.4183 35.1815 22.8599C35.1473 22.5466 35.068 22.2815 34.9434 22.0646C34.8173 21.8334 34.6611 21.656 34.4747 21.5323C34.3009 21.3927 34.1176 21.2975 33.9248 21.2465C33.7319 21.1955 33.55 21.1794 33.3792 21.198C32.9947 21.24 32.591 21.4354 32.1681 21.7841C31.7593 22.1313 31.389 22.6328 31.0572 23.2886C30.7238 23.9301 30.4732 24.7355 30.3053 25.7048C30.15 26.6583 30.1424 27.7757 30.2823 29.0572C30.4207 30.3244 30.6481 31.3513 30.9645 32.138C31.2794 32.9105 31.6254 33.5067 32.0026 33.9266C32.3783 34.3322 32.7535 34.601 33.1281 34.733C33.5154 34.8492 33.8372 34.8933 34.0934 34.8653C34.5871 34.7682 35.0241 34.5476 35.4044 34.2035C35.7323 33.9083 36.0226 33.466 36.2752 32.8765C36.5405 32.2712 36.6726 31.4355 36.6715 30.3695C36.8581 30.3635 37.0123 30.3899 37.134 30.4486C37.2699 30.5058 37.3844 30.5654 37.4776 30.6272C37.5724 30.7033 37.6616 30.7945 37.7452 30.9006C37.761 30.9133 37.7766 31.0557 37.7919 31.3277C37.8072 31.5998 37.7931 31.9327 37.7496 32.3265C37.7062 32.7203 37.616 33.1479 37.4791 33.6095C37.3564 34.0696 37.1523 34.5097 36.8668 34.9299C36.5956 35.3485 36.2311 35.7053 35.7734 36.0002C35.3173 36.3094 34.7404 36.502 34.0427 36.5782ZM45.636 32.3083C45.6754 32.4048 45.7282 32.4927 45.7945 32.5719C45.845 32.6385 45.9097 32.7034 45.9887 32.7668C46.0803 32.8145 46.1839 32.8392 46.2993 32.841C46.2214 33.0512 46.1365 33.1973 46.0447 33.2794C45.9924 33.3284 45.9456 33.3623 45.9045 33.3812C45.781 33.4379 45.5911 33.4802 45.3348 33.5082C45.0785 33.5362 44.8208 33.4851 44.5617 33.3549C44.4685 33.293 44.3785 33.1948 44.2917 33.0602C44.2081 32.9541 44.1269 32.8044 44.0482 32.6113C43.9822 32.4024 43.9171 32.1358 43.8528 31.8114C43.7001 32.2603 43.5096 32.6269 43.2813 32.9112C43.0657 33.1797 42.8431 33.3841 42.6135 33.5244C42.36 33.7106 42.0925 33.8334 41.8108 33.893C41.458 33.9603 41.1101 33.9407 40.767 33.8341C40.4367 33.7116 40.1413 33.5134 39.8808 33.2392C39.633 32.9493 39.4281 32.5899 39.266 32.1609C39.1039 31.732 39.0139 31.2375 38.996 30.6776C38.975 30.0891 39.0321 29.557 39.1675 29.0812C39.3028 28.6053 39.4792 28.1754 39.6966 27.7915C39.9141 27.4076 40.1519 27.079 40.4103 26.8059C40.667 26.5185 40.915 26.2825 41.1542 26.0979C41.4061 25.8975 41.6207 25.7516 41.798 25.6602C41.988 25.553 42.1107 25.4892 42.1661 25.4687C42.3181 25.4089 42.4518 25.3799 42.5673 25.3817C42.6827 25.3835 42.7894 25.4367 42.8872 25.5413C42.9204 25.5809 42.9614 25.6268 43.0104 25.6791C43.0451 25.7329 43.0892 25.8074 43.1428 25.9024C43.1948 25.9831 43.2413 26.0789 43.2822 26.1897C42.9576 26.3837 42.6567 26.5966 42.3794 26.8286C42.1007 27.0463 41.8479 27.3045 41.6211 27.603C41.4086 27.8999 41.2308 28.2507 41.0877 28.6554C40.9446 29.06 40.8535 29.5454 40.8144 30.1116C40.7482 30.8248 40.8452 31.3834 41.1055 31.7872C41.3799 32.1895 41.7055 32.334 42.0821 32.2209C42.3022 32.1248 42.5081 31.9654 42.6999 31.7428C42.8663 31.5517 43.0306 31.2744 43.1926 30.9109C43.3689 30.5459 43.5169 30.0543 43.6367 29.4361C43.6146 28.574 43.5985 27.8986 43.5883 27.4098C43.5909 26.9052 43.5995 26.5225 43.6143 26.2615C43.6386 25.9563 43.6595 25.7523 43.6771 25.6495C43.712 25.5737 43.7905 25.5003 43.9124 25.4293C44.0328 25.3441 44.1689 25.2716 44.3209 25.2118C44.4729 25.152 44.6129 25.1151 44.741 25.1011C44.8676 25.0729 44.9531 25.0636 44.9973 25.0731C45.0274 25.0843 45.061 25.2607 45.0984 25.6024C45.1341 25.9299 45.1657 26.3515 45.1932 26.8672C45.2334 27.3671 45.2719 27.9176 45.3087 28.5187C45.344 29.1056 45.3761 29.664 45.4052 30.1939C45.4485 30.7223 45.4848 31.1866 45.514 31.5868C45.556 31.9712 45.5967 32.2117 45.636 32.3083ZM52.6637 26.0083C52.6854 26.2076 52.651 26.4203 52.5604 26.6463C52.4825 26.8565 52.3754 27.0627 52.239 27.2649C52.1026 27.4671 51.9425 27.6503 51.7587 27.8144C51.5876 27.9628 51.4181 28.0605 51.2504 28.1077C51.3161 27.6538 51.3144 27.3082 51.2452 27.0708C51.1761 26.8334 51.0855 26.6632 50.9734 26.5602C50.8455 26.4445 50.6953 26.3889 50.5229 26.3933C50.2666 26.4213 50.0338 26.598 49.8243 26.9234C49.6276 27.233 49.4672 27.6108 49.3429 28.0566C49.2172 28.4881 49.1309 28.9514 49.0841 29.4464C49.0357 29.9271 49.0325 30.3597 49.0745 30.7442C49.0898 31.0163 49.1257 31.2789 49.1821 31.5321C49.2197 31.7441 49.2651 31.9624 49.3185 32.1872C49.3861 32.4103 49.4625 32.5821 49.5476 32.7024C49.47 32.7829 49.3369 32.8839 49.1485 33.0054C48.9743 33.1252 48.7819 33.2111 48.5715 33.2629C48.3752 33.3131 48.1862 33.2977 48.0045 33.2167C47.837 33.1341 47.7282 32.9299 47.6783 32.604C47.6156 32.2938 47.5561 31.9473 47.4999 31.5645C47.4564 31.1658 47.4136 30.7742 47.3717 30.3898C47.3424 29.9896 47.3138 29.5965 47.2861 29.2105C47.2584 28.8245 47.2409 28.4662 47.2336 28.1356C47.1937 27.506 47.155 27.0204 47.1177 26.6786C47.0804 26.3369 47.0375 26.0102 46.9891 25.6985C46.9829 25.6416 47.0669 25.5532 47.2411 25.4333C47.428 25.2976 47.6307 25.1746 47.8492 25.0643C48.0819 24.9525 48.2971 24.8785 48.4949 24.8425C48.6927 24.8065 48.797 24.8384 48.8079 24.938C48.825 25.0946 48.8379 25.4102 48.8465 25.8847C48.8677 26.3435 48.8771 26.8251 48.8746 27.3297C48.9447 27.0483 49.041 26.7424 49.1634 26.4121C49.3 26.0802 49.4604 25.7673 49.6444 25.4734C49.8285 25.1796 50.0464 24.9325 50.2983 24.7321C50.5486 24.5174 50.8375 24.3922 51.165 24.3565C51.4213 24.3285 51.6363 24.3843 51.81 24.5238C51.998 24.6617 52.1526 24.825 52.2741 25.0134C52.3955 25.2019 52.4885 25.3934 52.553 25.5881C52.6174 25.7828 52.6543 25.9228 52.6637 26.0083ZM59.5566 28.1733C59.5887 28.7317 59.545 29.2551 59.4255 29.7436C59.3202 30.2306 59.1445 30.6676 58.8986 31.0547C58.6512 31.4275 58.339 31.7353 57.9621 31.9782C57.5994 32.2195 57.1839 32.3729 56.7156 32.4385C56.3043 32.4978 55.9018 32.4409 55.5083 32.2677C55.1291 32.093 54.7832 31.8282 54.4707 31.4733C54.1582 31.1184 53.902 30.6853 53.702 30.1741C53.5148 29.647 53.4155 29.0671 53.404 28.4344C53.3675 27.7036 53.4351 27.0695 53.6069 26.532C53.7772 25.9803 53.9719 25.5196 54.1908 25.1499C54.4098 24.7802 54.6176 24.5054 54.814 24.3254C55.0232 24.1297 55.1547 24.0145 55.2085 23.9798C55.3035 23.9262 55.3953 23.909 55.4838 23.9281C55.5708 23.933 55.6657 23.9443 55.7685 23.9619C55.7985 23.973 55.8309 24.0055 55.8656 24.0593C55.9334 24.1528 55.9892 24.334 56.033 24.603C56.0871 24.4386 56.1656 24.3003 56.2687 24.1882C56.3717 24.0761 56.4778 23.9925 56.5871 23.9373C56.7232 23.8648 56.8617 23.8137 57.0026 23.7839C57.1007 23.7588 57.2801 23.8185 57.5408 23.9629C57.8157 24.1058 58.0873 24.3499 58.3555 24.6952C58.638 25.0389 58.8973 25.5005 59.1335 26.0799C59.3681 26.645 59.5091 27.3428 59.5566 28.1733ZM58.0763 28.0755C58.0532 27.7323 58.0017 27.3921 57.9216 27.055C57.8543 26.7022 57.7624 26.3881 57.6458 26.1126C57.542 25.8214 57.4238 25.5966 57.2912 25.4381C57.1571 25.2655 57.0331 25.1854 56.9192 25.1978C56.7942 25.2403 56.6588 25.3199 56.513 25.4367C56.3942 25.5361 56.2666 25.6869 56.1302 25.8891C55.9938 26.0913 55.873 26.371 55.768 26.7283C55.7491 26.6871 55.7263 26.6104 55.6996 26.498C55.6745 26.3999 55.6463 26.2733 55.6149 26.1183C55.5963 25.9474 55.5856 25.718 55.583 25.4301C55.4101 25.694 55.2846 25.9958 55.2064 26.3358C55.1425 26.6741 55.0984 26.9959 55.0741 27.3011C55.056 27.6633 55.0522 28.0239 55.0626 28.383C55.0903 28.769 55.1457 29.1447 55.2289 29.5103C55.3262 29.8743 55.4474 30.1924 55.5924 30.4647C55.7517 30.7355 55.926 30.947 56.1156 31.0992C56.3051 31.2514 56.5201 31.3072 56.7606 31.2665C57.0011 31.2258 57.2038 31.1028 57.3686 30.8975C57.5335 30.6922 57.6716 30.4394 57.7829 30.1391C57.8942 29.8388 57.9731 29.506 58.0197 29.1407C58.0663 28.7754 58.0851 28.4204 58.0763 28.0755ZM62.3763 17.578C62.4038 18.0937 62.4185 18.69 62.4204 19.367C62.4222 20.044 62.4224 20.7716 62.421 21.5498C62.4337 22.3264 62.4433 23.1394 62.4496 23.9888C62.4701 24.8367 62.4985 25.6908 62.5348 26.5513C62.5712 27.4119 62.6189 28.1126 62.6779 28.6537C62.7497 29.179 62.8327 29.6093 62.927 29.9448C63.0212 30.2803 63.1291 30.5423 63.2505 30.7308C63.372 30.9192 63.5211 31.0975 63.6979 31.2654C63.5253 31.3996 63.3637 31.5037 63.2133 31.5777C63.0629 31.6518 62.9323 31.7092 62.8215 31.7502C62.6838 31.8084 62.558 31.8438 62.4441 31.8562C62.2305 31.8795 62.0345 31.8001 61.8562 31.6178C61.6762 31.4214 61.5185 31.1648 61.3831 30.8482C61.2619 30.5301 61.1511 30.1748 61.0506 29.7823C60.9628 29.3741 60.8971 28.9706 60.8536 28.5719C60.807 28.1448 60.7676 27.652 60.7354 27.0936C60.7017 26.521 60.6649 25.9199 60.625 25.2903C60.5977 24.6449 60.5681 23.9781 60.5362 23.29C60.5028 22.5877 60.463 21.8932 60.4168 21.2067C60.3878 20.6768 60.3642 20.1967 60.346 19.7664C60.3341 19.3931 60.3189 19.0562 60.3005 18.7556C60.2805 18.4408 60.2532 18.2565 60.2185 18.2027C60.2915 18.0794 60.3889 17.9823 60.5109 17.9114C60.6328 17.8404 60.7484 17.7774 60.8576 17.7222C60.9953 17.664 61.1338 17.6128 61.2731 17.5688L61.6789 17.5245C61.7928 17.5121 61.9154 17.5131 62.0466 17.5276C62.1763 17.5278 62.2862 17.5446 62.3763 17.578ZM64.1939 23.7335C64.1845 23.6481 64.2883 23.5431 64.5053 23.4186C64.7222 23.294 64.9628 23.1885 65.2271 23.102C65.5041 22.9997 65.7565 22.9362 65.9843 22.9113C66.2248 22.8706 66.3513 22.9072 66.3637 23.0211C66.3871 23.2347 66.4062 23.5424 66.4213 23.9442C66.4348 24.3317 66.4443 24.7485 66.4498 25.1946C66.4537 25.6264 66.4584 26.0653 66.4639 26.5114C66.4678 26.9432 66.479 27.3094 66.4974 27.6099C66.5031 27.9263 66.5119 28.2711 66.5239 28.6444C66.5296 28.9607 66.5463 29.3119 66.5741 29.6979C66.6018 30.0839 66.6446 30.4754 66.7023 30.8726C66.7101 30.9438 66.6467 31.0227 66.5121 31.1095C66.3775 31.1962 66.2263 31.2631 66.0585 31.3103C65.8923 31.3716 65.7309 31.4109 65.5743 31.428C65.4177 31.4451 65.3291 31.4259 65.3087 31.3705C65.274 31.3167 65.2346 31.2201 65.1906 31.0809C65.1466 30.9416 65.0964 30.7454 65.0399 30.4922C64.9819 30.2248 64.9232 29.8854 64.8639 29.474C64.803 29.0484 64.7542 28.5351 64.7173 27.9339C64.6453 26.7459 64.5529 25.8339 64.4402 25.1979C64.326 24.5476 64.2439 24.0594 64.1939 23.7335ZM65.2248 19.3202C65.5096 19.2891 65.7894 19.345 66.0644 19.4878C66.3393 19.6307 66.4924 19.8445 66.5234 20.1293C66.5468 20.3429 66.5124 20.5555 66.4202 20.7673C66.3423 20.9775 66.2336 21.1695 66.0941 21.3432C65.9546 21.5169 65.7906 21.6645 65.6021 21.786C65.4121 21.8932 65.2317 21.9561 65.0608 21.9747C64.833 21.9996 64.644 21.9842 64.4939 21.9286C64.3422 21.8587 64.2181 21.7786 64.1218 21.6882C64.0382 21.5821 63.9752 21.4665 63.9327 21.3415C63.8902 21.2165 63.8628 21.097 63.8503 20.9831C63.8348 20.8407 63.839 20.6817 63.8631 20.5062C63.8856 20.3165 63.946 20.1442 64.0444 19.9893C64.1412 19.8203 64.2838 19.675 64.4723 19.5536C64.6607 19.4322 64.9116 19.3544 65.2248 19.3202ZM64.9078 21.3647C64.9932 21.3554 65.0826 21.3168 65.1761 21.249C65.2822 21.1653 65.3733 21.0761 65.4494 20.9814C65.5398 20.8851 65.608 20.784 65.654 20.6781C65.7144 20.5706 65.7406 20.4813 65.7329 20.4101C65.7204 20.2962 65.6572 20.2455 65.5433 20.2579C65.4721 20.2657 65.3827 20.3043 65.275 20.3737C65.1816 20.4415 65.0897 20.5236 64.9993 20.6199C64.9074 20.702 64.8313 20.7967 64.771 20.9042C64.7234 20.9958 64.7043 21.0843 64.7136 21.1698C64.7291 21.3122 64.7939 21.3771 64.9078 21.3647ZM70.8724 30.0714C70.8675 30.1584 70.7993 30.2595 70.6678 30.3747C70.549 30.4742 70.4009 30.5696 70.2236 30.661C70.0605 30.7508 69.9014 30.8114 69.7464 30.8428C69.5929 30.8883 69.4845 30.8858 69.4214 30.835C69.3582 30.7843 69.254 30.6876 69.1087 30.545C68.9635 30.4024 68.8572 30.1546 68.7898 29.8018C68.7209 29.4347 68.6562 28.9735 68.5955 28.4182C68.5334 27.8487 68.4578 27.223 68.369 26.5411L68.2757 25.6868C68.2477 25.4305 68.2079 25.1323 68.1564 24.7921C68.1191 24.4504 68.0731 24.0952 68.0184 23.7266C68.1388 23.6414 68.26 23.5633 68.3819 23.4924C68.5165 23.4056 68.6384 23.3347 68.7477 23.2795C68.8696 23.2086 68.986 23.1527 69.0967 23.1117C69.3864 22.9937 69.6088 22.919 69.7639 22.8876C69.9189 22.8563 70.0169 22.896 70.0578 23.0068C70.0814 23.0907 70.0968 23.2979 70.1041 23.6285C70.1067 23.9164 70.1185 24.3545 70.1396 24.943C70.159 25.5172 70.1749 26.3223 70.1872 27.3583C70.3225 26.8825 70.4293 26.4746 70.5074 26.1347C70.5998 25.7932 70.6778 25.5181 70.7415 25.3095C70.8005 25.0581 70.8578 24.8573 70.9135 24.7072C70.9644 24.5143 71.0345 24.2977 71.1235 24.0575C71.2125 23.8172 71.3031 23.5912 71.3952 23.3795C71.5016 23.1661 71.5961 22.9757 71.6787 22.8082C71.7755 22.6392 71.8508 22.5373 71.9046 22.5026C71.9442 22.4694 72.0724 22.4554 72.2891 22.4606C72.5058 22.4658 72.7413 22.5121 72.9958 22.5996C73.2488 22.6728 73.5 22.7966 73.7496 22.9711C73.9976 23.1313 74.172 23.3428 74.2727 23.6056C74.3924 23.9095 74.4659 24.3193 74.4934 24.835C74.5351 25.3491 74.5571 25.8798 74.5592 26.4271C74.5756 26.9728 74.5959 27.4893 74.6203 27.9765C74.6447 28.4637 74.7136 28.8308 74.827 29.0777C74.871 29.217 74.9277 29.3405 74.9971 29.4482C75.038 29.559 75.0853 29.6619 75.1389 29.7569C75.2052 29.8361 75.2691 29.894 75.3307 29.9304C75.0061 30.1244 74.7409 30.2686 74.5351 30.3631C74.3293 30.4576 74.171 30.5253 74.0602 30.5663C73.9225 30.6245 73.8244 30.6496 73.7659 30.6416C73.6331 30.6129 73.5075 30.5185 73.3892 30.3586C73.2851 30.197 73.1772 29.9351 73.0656 29.5726C73.0247 29.4618 72.9903 29.2783 72.9623 29.022C72.947 28.7499 72.9357 28.4486 72.9284 28.118C72.9196 27.7732 72.91 27.4212 72.8996 27.0622C72.9019 26.6873 72.893 26.3425 72.8731 26.0277C72.8658 25.6971 72.8568 25.4171 72.8462 25.1877C72.834 24.9441 72.8161 24.7804 72.7926 24.6965C72.6934 24.448 72.5743 24.2809 72.4353 24.1952C72.2947 24.0953 72.1934 24.092 72.1316 24.1852C71.9698 24.4189 71.8086 24.7895 71.6478 25.297C71.4998 25.7886 71.3643 26.3293 71.2414 26.919C71.117 27.4945 71.021 28.0669 70.9535 28.6362C70.8859 29.2055 70.8589 29.6839 70.8724 30.0714ZM82.6485 28.267C82.6878 28.3635 82.7407 28.4514 82.8069 28.5306C82.8574 28.5971 82.9222 28.6621 83.0011 28.7255C83.0928 28.7732 83.1963 28.7979 83.3118 28.7997C83.2339 29.0099 83.149 29.156 83.0571 29.2381C83.0048 29.287 82.9581 29.321 82.9169 29.3399C82.7934 29.3966 82.6036 29.4389 82.3473 29.4669C82.091 29.4949 81.8333 29.4438 81.5741 29.3136C81.4809 29.2517 81.3909 29.1535 81.3042 29.0189C81.2206 28.9127 81.1394 28.7631 81.0607 28.57C80.9946 28.3611 80.9295 28.0944 80.8653 27.7701C80.7126 28.219 80.5221 28.5856 80.2938 28.8699C80.0781 29.1383 79.8555 29.3427 79.6259 29.4831C79.3725 29.6692 79.1049 29.7921 78.8233 29.8517C78.4704 29.919 78.1225 29.8994 77.7795 29.7927C77.4491 29.6703 77.1537 29.4721 76.8933 29.1979C76.6455 28.908 76.4406 28.5486 76.2785 28.1196C76.1164 27.6907 76.0263 27.1962 76.0084 26.6363C75.9874 26.0478 76.0446 25.5157 76.1799 25.0399C76.3153 24.564 76.4916 24.1341 76.7091 23.7502C76.9265 23.3662 77.1644 23.0377 77.4227 22.7646C77.6795 22.4772 77.9275 22.2412 78.1667 22.0566C78.4185 21.8562 78.6331 21.7103 78.8105 21.6189C79.0005 21.5117 79.1232 21.4479 79.1786 21.4274C79.3305 21.3676 79.4642 21.3386 79.5797 21.3404C79.6952 21.3422 79.8018 21.3954 79.8997 21.4999C79.9328 21.5396 79.9739 21.5855 80.0228 21.6378C80.0575 21.6916 80.1016 21.7661 80.1552 21.8611C80.2073 21.9418 80.2538 22.0376 80.2947 22.1484C79.9701 22.3423 79.6691 22.5553 79.3919 22.7873C79.1131 23.005 78.8603 23.2632 78.6336 23.5617C78.4211 23.8586 78.2432 24.2094 78.1001 24.6141C77.957 25.0187 77.8659 25.5041 77.8269 26.0703C77.7607 26.7835 77.8577 27.342 78.1179 27.7459C78.3923 28.1481 78.7179 28.2927 79.0946 28.1795C79.3146 28.0835 79.5205 27.9241 79.7123 27.7015C79.8788 27.5104 80.043 27.2331 80.205 26.8696C80.3813 26.5046 80.5293 26.013 80.6491 25.3947C80.627 24.5327 80.6109 23.8572 80.6008 23.3685C80.6033 22.8639 80.612 22.4812 80.6267 22.2202C80.651 21.915 80.672 21.711 80.6895 21.6082C80.7245 21.5324 80.8029 21.459 80.9248 21.388C81.0452 21.3028 81.1814 21.2303 81.3333 21.1705C81.4853 21.1107 81.6253 21.0738 81.7535 21.0598C81.8801 21.0316 81.9655 21.0222 82.0098 21.0318C82.0398 21.0429 82.0735 21.2194 82.1108 21.5611C82.1466 21.8886 82.1782 22.3102 82.2057 22.8258C82.2458 23.3257 82.2843 23.8762 82.3212 24.4774C82.3564 25.0642 82.3886 25.6226 82.4176 26.1526C82.4609 26.6809 82.4972 27.1452 82.5265 27.5455C82.5685 27.9299 82.6091 28.1704 82.6485 28.267Z" fill="black"/>
<path d="M92.1734 21.0145C92.1532 20.8294 92.1698 20.6511 92.2231 20.4796C92.2764 20.3081 92.3569 20.1552 92.4648 20.0209C92.5726 19.8867 92.7013 19.779 92.8509 19.6978C93.0069 19.6087 93.1774 19.5541 93.3625 19.5339C93.5405 19.5145 93.7152 19.5314 93.8867 19.5847C94.0583 19.638 94.2111 19.7186 94.3454 19.8264C94.4796 19.9342 94.5913 20.0661 94.6803 20.2221C94.7694 20.378 94.8237 20.545 94.8431 20.723C94.8625 20.901 94.8456 21.0757 94.7923 21.2472C94.7453 21.4108 94.6683 21.5633 94.5613 21.7047C94.4535 21.8389 94.3216 21.9506 94.1656 22.0397C94.0096 22.1287 93.8391 22.1834 93.654 22.2036C93.4689 22.2238 93.2906 22.2072 93.1191 22.1539C92.9547 22.0998 92.8054 22.0189 92.6711 21.9111C92.5369 21.8033 92.4256 21.6749 92.3373 21.5261C92.2483 21.3701 92.1936 21.1996 92.1734 21.0145ZM94.1484 26.7314C94.3264 26.7119 94.5011 26.7289 94.6726 26.7822C94.8441 26.8355 94.997 26.916 95.1312 27.0239C95.2655 27.1317 95.3771 27.2636 95.4662 27.4195C95.5553 27.5755 95.6095 27.7425 95.629 27.9204C95.6484 28.0984 95.6315 28.2732 95.5781 28.4447C95.5312 28.6083 95.4542 28.7608 95.3471 28.9021C95.2393 29.0364 95.1074 29.148 94.9515 29.2371C94.7955 29.3262 94.625 29.3808 94.4399 29.401C94.2548 29.4212 94.0765 29.4047 93.905 29.3514C93.7342 29.3052 93.5817 29.2282 93.4475 29.1204C93.3133 29.0126 93.2016 28.8807 93.1125 28.7247C93.0306 28.568 92.9795 28.397 92.9593 28.2119C92.9391 28.0268 92.9556 27.8485 93.0089 27.677C93.0623 27.5055 93.1428 27.3526 93.2506 27.2184C93.3584 27.0842 93.4872 26.9764 93.6368 26.8953C93.7927 26.8062 93.9633 26.7516 94.1484 26.7314ZM99.2407 33.1884L98.8521 32.8959C99.5026 31.8595 100.01 30.9648 100.374 30.2119C100.756 29.4209 101.042 28.6081 101.232 27.7733C101.428 26.9306 101.56 26.1274 101.628 25.3635C101.703 24.5989 101.732 23.9042 101.714 23.2794C101.695 22.6475 101.666 22.1464 101.625 21.7762C101.585 21.406 101.506 20.914 101.389 20.3001C101.271 19.6861 101.093 19.014 100.855 18.2836C100.624 17.5524 100.322 16.8001 99.9495 16.0267C99.5832 15.2455 99.1279 14.5063 98.5835 13.8093C98.2656 13.4046 97.9791 13.0577 97.7243 12.7685C97.4765 12.4786 97.2156 12.2009 96.9417 11.9355C96.667 11.6629 96.5253 11.5199 96.5166 11.5064L96.8341 11.1476C97.8351 11.6722 98.7059 12.2579 99.4465 12.9047C100.193 13.5435 100.831 14.2051 101.36 14.8894C101.888 15.5737 102.323 16.2539 102.663 16.9299C103.003 17.6059 103.274 18.2391 103.476 18.8295C103.677 19.4198 103.822 19.9516 103.909 20.4247C104.003 20.8899 104.064 21.2506 104.092 21.5069C104.122 21.7774 104.144 22.1496 104.16 22.6233C104.176 23.0971 104.149 23.6439 104.08 24.2638C104.011 24.8837 103.882 25.5568 103.695 26.2833C103.515 27.0089 103.24 27.7593 102.871 28.5345C102.502 29.3096 102.022 30.0932 101.431 30.8853C100.848 31.6766 100.118 32.4443 99.2407 33.1884Z" fill="black"/>
</g>
<defs>
<filter id="filter0_d_120_743" x="0" y="0" width="129.319" height="57.5896" filterUnits="userSpaceOnUse" color-interpolation-filters="sRGB">
<feFlood flood-opacity="0" result="BackgroundImageFix"/>
<feColorMatrix in="SourceAlpha" type="matrix" values="0 0 0 0 0 0 0 0 0 0 0 0 0 0 0 0 0 0 127 0" result="hardAlpha"/>
<feOffset dy="4"/>
<feGaussianBlur stdDeviation="2"/>
<feComposite in2="hardAlpha" operator="out"/>
<feColorMatrix type="matrix" values="0 0 0 0 0 0 0 0 0 0 0 0 0 0 0 0 0 0 0.25 0"/>
<feBlend mode="normal" in2="BackgroundImageFix" result="effect1_dropShadow_120_743"/>
<feBlend mode="normal" in="SourceGraphic" in2="effect1_dropShadow_120_743" result="shape"/>
</filter>
</defs>
</svg>
